<?xml version="1.0" encoding="utf-8"?>
<svg version="1.1" xmlns:xlink="http://www.w3.org/1999/xlink" width="85px" height="16px" xmlns="http://www.w3.org/2000/svg">
  <g transform="matrix(1 0 0 1 -62 -49 )">
    <path d="M 4.28186674058206 15.907243027762632  C 2.648322099792458 15.907243027762632  1.2210332661681498 15.829951099485168  0 15.675361742718009  C 0 15.675361742718009  0 0.3478257298244669  0 0.3478257298244669  C 1.386037887929471 0.11594191961644451  3.0773339725464113 0  5.073888733269092 0  C 8.060469906159458 0  10.345782725000808 0.5565213999180803  11.92982599124747 1.6695643158537072  C 13.810877624606336 2.983574363565944  14.751403860776755 4.946859648748029  14.751403860776755 7.559419707002098  C 14.751403860776755 10.311110115235687  13.835628431732374 12.421256117280894  12.004077333934475 13.889855042849991  C 10.271530303622697 15.234782494615306  7.697459666371811 15.907243027762632  4.28186674058206 15.907243027762632  Z M 5.46989925019434 2.713042753396374  C 4.760380227588087 2.713042753396374  4.191114839835268 2.7594195343041417  3.762103027008598 2.8521728711769607  C 3.762103027008598 2.8521728711769607  3.762103027008598 13.078258470849281  3.762103027008598 13.078258470849281  C 3.9766088135673656 13.124635255385158  4.413870426005659 13.147824342435841  5.073888733269092 13.147824342435841  C 6.839436759845875 13.163283193214822  8.225474048502509 12.714973545575543  9.232001318366398 11.802896542372126  C 10.255029685635627 10.875360372744304  10.766544408615793 9.499516329622175  10.766544408615793 7.675361742718009  C 10.766544408615793 6.06763258326886  10.296281290530585 4.838646412572922  9.35575547385115 3.9884049140724627  C 8.415229657171718 3.1381634155720035  7.119944628825578 2.713042753396374  5.46989925019434 2.713042753396374  Z M 25.079589298499847 13.217390214022402  C 25.904611987815468 13.217390214022402  26.622379821233164 13.09371821777102  27.232896454317235 12.846375328213192  C 27.232896454317235 12.846375328213192  27.6784102634585 15.443475813694722  27.6784102634585 15.443475813694722  C 26.886388630335173 15.799031358930325  25.764356315434387 15.97680797055346  24.31231679453861 15.97680797055346  C 22.348762910226366 15.97680797055346  20.78947057096031 15.45893399327366  19.634439057613037 14.423185342117264  C 18.47940754426576 13.371977814785128  17.901890469191883 11.957487626118851  17.901890469191883 10.179709899940836  C 17.901890469191883 8.463768026764178  18.512409379512736 7.0338157111370965  19.733442765535454 5.889854578452125  C 20.954476031703603 4.745893445767153  22.654023384150616 4.173912356977067  24.832082905203418 4.173912356977067  C 25.904612047742752 4.173912356977067  26.861636864372592 4.32077298676559  27.7031597521843 4.614492649974969  C 27.7031597521843 4.614492649974969  27.1091451753421 7.234781449720107  27.1091451753421 7.234781449720107  C 26.54812973701911 7.002897175114219  25.84685796711493 6.886955342572374  25.005335079303226 6.886955342572374  C 24.031808326286075 6.886955342572374  23.23978765199928 7.1806756733536865  22.629271018915205 7.768115464170312  C 22.03525488396363 8.35555479058907  21.74649624155395 9.113042683736694  21.762996724704628 10.040579085563449  C 21.762996724704628 11.045409752169435  22.07650816682253 11.826085553232534  22.703525238111826 12.382607185349547  C 23.33054230940112 12.939128933566028  24.12256316346976 13.217390214022402  25.079589298499847 13.217390214022402  Z M 41.05441201075197 14.446375513972338  C 39.81687800674218 15.482124165128736  38.323587540151564 16  36.57453977199815 16  C 36.57453977199815 16  36.549786447926195 16  36.549786447926195 16  C 34.73473704680648 16  33.233197349913425 15.474392985548867  32.04516472044658 14.423185342117264  C 30.87363282882137 13.371977814785128  30.28786472562656 11.949757375334714  30.28786472562656 10.156520656881494  C 30.28786472562656 8.332366069977327  30.87363282882137 6.879225788385038  32.04516472044658 5.797100392601957  C 33.233197349913425 4.6995163528420685  34.80898970789372 4.150724507111325  36.77254335249683 4.150724507111325  C 38.604093371603625 4.150724507111325  40.08913113210935 4.691787146953132  41.2276622671787 5.7739125427362135  C 42.36619340224804 6.856037938519295  42.935461366874044 8.255071340800232  42.935461366874044 9.97101321397689  C 42.935461366874044 11.918839274684837  42.30844615333055 13.410626862815942  41.05441201075197 14.446375513972338  Z M 34.81723785950505 12.521737999726934  C 35.246249672331714 13.155554419070777  35.84851779424076 13.472462599717831  36.624038749449745 13.472462599717831  C 36.624038749449745 13.472462599717831  36.648788238175534 13.472462599717831  36.648788238175534 13.472462599717831  C 37.391308257046795 13.472462599717831  37.97707426278668 13.16328287031318  38.40608631532248 12.54492538519481  C 38.835097888440025 11.92656807422564  39.049607540308585 11.099515122187723  39.049607540308585 10.063766471031325  C 39.049607540308585 9.136230301403502  38.84335098405224 8.340096146612265  38.43083963939444 7.675361742718009  C 38.034829032578266 7.010627338823754  37.44080987129887 6.67825958540416  36.648788238175534 6.67825958540416  C 35.82376554885992 6.67825958540416  35.204999715437054 7.010627338823754  34.792488370779246 7.675361742718009  C 34.37997726583057 8.340096146612265  34.173720469865096 9.143959913640574  34.173720469865096 10.086954785294935  C 34.173720469865096 11.076326807924113  34.38822628638751 11.887921696482557  34.81723785950505 12.521737999726934  Z M 50.51283970112095 15.744926685508837  L 46.75073715353062 15.744926685508837  C 46.75073715353062 15.744926685508837  46.75073715353062 8.023187385467876  46.75073715353062 8.023187385467876  C 46.75073715353062 6.9719796259368065  46.71773717602944 5.766182175852611  46.651735363281276 4.405795964011023  C 46.651735363281276 4.405795964011023  49.918825124278754 4.405795964011023  49.918825124278754 4.405795964011023  L 50.09207921605164 5.982607835506561  C 50.09207921605164 5.982607835506561  50.166327682229024 5.982607835506561  50.166327682229024 5.982607835506561  C 50.47983612798275 5.503381019641243  50.95010050454091 5.078260183316414  51.57711757583021 4.707245907029405  C 52.220635145252004 4.336231630742396  52.996159756025286 4.150724507111325  53.903684576439716 4.150724507111325  C 55.20722009356124 4.150724507111325  56.25499375464641 4.568115731199085  57.04701538776974 5.4028981213248715  C 57.83903702089307 6.222221693324652  58.23505221214644 7.435747768800451  58.23505221214644 9.043476928249602  C 58.23505221214644 9.043476928249602  58.23505221214644 15.744926685508837  58.23505221214644 15.744926685508837  L 54.47294582920996 15.744926685508837  C 54.47294582920996 15.744926685508837  54.47294582920996 9.460868442586028  54.47294582920996 9.460868442586028  C 54.47294582920996 7.8222216468848655  53.83767814929071 7.002898307084018  52.56714314901592 7.002898307084018  C 51.643118070178126 7.002898307084018  50.999604695666186 7.443477439087254  50.63659481544224 8.324636399690526  C 50.554092646888876 8.510143537834029  50.51283970112095 8.803863389705043  50.51283970112095 9.205796056890597  C 50.51283970112095 9.205796056890597  50.51283970112095 15.744926685508837  50.51283970112095 15.744926685508837  Z M 63.11286462635877 4.405795964011023  L 63.11286462635877 2.2724631569952716  L 66.80071487242556 1.3217386731038403  L 66.80071487242556 4.405795964011023  L 69.49854338065278 4.405795964011023  L 69.49854338065278 7.002898307084018  L 66.80071487242556 7.002898307084018  C 66.80071487242556 7.002898307084018  66.80071487242556 11.107245256872393  66.80071487242556 11.107245256872393  C 66.80071487242556 11.802897355068392  66.90797137632379 12.313041952310055  67.12247740259168 12.637679571044979  C 67.35348367230114 12.946858226529564  67.74124620241508 13.101448642704357  68.28576090289644 13.101448642704357  C 68.71477247601396 13.101448642704357  69.0860365005776 13.070529279472778  69.3995454257496 13.008693528058455  C 69.3995454257496 13.008693528058455  69.42429107912923 15.675361742718009  69.42429107912923 15.675361742718009  C 68.84677538238289 15.87632791667402  68.03825462945457 15.97680797055346  66.99872612361655 15.97680797055346  C 65.79419323572634 15.97680797055346  64.84541579165312 15.652171338664001  64.1523968476884 15.002895985094685  C 63.459377903723656 14.322702763074425  63.11286462635877 13.201930641249861  63.11286462635877 11.640578342526863  C 63.11286462635877 11.640578342526863  63.11286462635877 7.002898307084018  63.11286462635877 7.002898307084018  L 61.50407115225891 7.002898307084018  L 61.50407115225891 4.405795964011023  L 63.11286462635877 4.405795964011023  Z M 83.11895447922407 14.446375513972338  C 81.88142047521427 15.482124165128736  80.38812617327751 16  78.6390784051241 16  C 78.6390784051241 16  78.61433275174444 16  78.61433275174444 16  C 76.79928335062473 16  75.29773598303937 15.474392985548867  74.10970335357253 14.423185342117264  C 72.93817146194732 13.371977814785128  72.35241678246405 11.949757375334714  72.35241678246405 10.156520656881494  C 72.35241678246405 8.332366069977327  72.93817146194732 6.879225788385038  74.10970335357253 5.797100392601957  C 75.29773598303937 4.6995163528420685  76.87352834101966 4.150724507111325  78.83708198562277 4.150724507111325  C 80.66863200472956 4.150724507111325  82.15368127127377 4.691787146953132  83.29221240634311 5.7739125427362135  C 84.43074354141244 6.856037938519295  85 8.255071340800232  85 9.97101321397689  C 85 11.918839274684837  84.37298862180265 13.410626862815942  83.11895447922407 14.446375513972338  Z M 76.88177649263099 12.521737999726934  C 77.31078830545766 13.155554419070777  77.91305642736671 13.472462599717831  78.68857738257569 13.472462599717831  C 78.68857738257569 13.472462599717831  78.71333837733995 13.472462599717831  78.71333837733995 13.472462599717831  C 79.4558583962112 13.472462599717831  80.04162056660493 13.16328287031318  80.47063261914074 12.54492538519481  C 80.89964419225828 11.92656807422564  81.11415000878068 11.099515122187723  81.11415000878068 10.063766471031325  C 81.11415000878068 9.136230301403502  80.9078896171782 8.340096146612265  80.49537827252038 7.675361742718009  C 80.09936766570421 7.010627338823754  79.50536001046328 6.67825958540416  78.71333837733995 6.67825958540416  C 77.88831568802432 6.67825958540416  77.26954985460146 7.010627338823754  76.85703850994365 7.675361742718009  C 76.44452740499499 8.340096146612265  76.23826677368335 9.143959913640574  76.23826677368335 10.086954785294935  C 76.23826677368335 11.076326807924113  76.45276491951346 11.887921696482557  76.88177649263099 12.521737999726934  Z " fill-rule="nonzero" fill="#0084cc" stroke="none" transform="matrix(1 0 0 1 62 49 )" />
  </g>
</svg>