<svg width="20" height="20" viewBox="0 0 20 20" fill="none" xmlns="http://www.w3.org/2000/svg"><rect width="20" height="20" rx="3" fill="#0084CC"></rect><path d="M3.20765 8.9961L5.29709 10.0026V11.6781C5.29709 11.819 5.3778 11.9475 5.50474 12.0086L9.50201 13.9341C9.55167 13.958 9.60608 13.9704 9.66123 13.9704H10.3329C10.3881 13.9704 10.4425 13.958 10.4922 13.9341L14.4784 12.0139C14.5557 11.9766 14.6174 11.9135 14.653 11.8355C14.658 11.8245 14.6628 11.8134 14.6676 11.8022C14.6871 11.7567 14.6971 11.7076 14.6971 11.6581V10.0026L15.267 9.72803V12.0001C15.1437 12.0823 15.0486 12.2054 15.0026 12.3555L14.6783 13.4121C14.6384 13.5424 14.6395 13.6799 14.6815 13.8096L14.9822 14.7364C15.068 15.0007 15.3123 15.1841 15.59 15.1926C15.5919 15.1927 15.5937 15.1927 15.5956 15.1927L15.6047 15.1929C15.6066 15.1929 15.6085 15.1929 15.6105 15.1929C15.8835 15.1929 16.1247 15.0287 16.2248 14.7746L16.5725 13.892C16.6261 13.7559 16.6329 13.6036 16.5916 13.4633L16.2674 12.3626C16.2222 12.2091 16.1263 12.0831 16.0008 11.9996V9.37462L16.7923 8.99331C16.9193 8.93214 17 8.80371 17 8.66277V8.37059C17 8.22968 16.9193 8.10122 16.7923 8.04005L10.1563 4.84347C10.0556 4.79501 9.93844 4.79501 9.83783 4.84347L3.20765 8.03727C3.08071 8.0984 3 8.22687 3 8.3678V8.66559C3 8.8065 3.08071 8.93493 3.20765 8.9961ZM15.6171 14.3155L15.3866 13.6052L15.6324 12.8041L15.8806 13.6466L15.6171 14.3155ZM13.9633 11.4476L10.2492 13.2367H9.74496L6.03084 11.4476V10.3561L9.83786 12.19C9.88816 12.2142 9.94261 12.2263 9.99708 12.2263C10.0516 12.2263 10.106 12.2142 10.1563 12.19L13.9634 10.3561L13.9633 11.4476ZM9.99705 5.58121L16.091 8.5167L14.2196 9.41818C14.2031 9.4234 14.1868 9.42954 14.171 9.43714L9.99705 11.4478L5.82316 9.43714C5.80734 9.42954 5.79108 9.4234 5.77461 9.41818L3.90315 8.51667L9.99705 5.58121Z" fill="white"></path></svg>