<?xml version="1.0" encoding="utf-8"?>
<svg version="1.1" xmlns:xlink="http://www.w3.org/1999/xlink" width="16px" height="16px" xmlns="http://www.w3.org/2000/svg">
  <g transform="matrix(1 0 0 1 -15 -431 )">
    <path d="M 16 8.499929414254154  C 16 8.327712621874468  15.92680612529934 8.163779879889432  15.796150964811599 8.042266662593136  C 15.796150964811599 8.042266662593136  11.636934714071533 4.185076488779998  11.636934714071533 4.185076488779998  C 11.368771502441362 3.9356403033177685  10.935077354787339 3.9388753391652926  10.669648862187024 4.191516400062369  C 10.40422036958671 4.444157460959445  10.406955487491764 4.851086015779629  10.676502151716907 5.1005222012418585  C 10.676502151716907 5.1005222012418585  13.648818003925424 7.857109640321312  13.648818003925424 7.857109640321312  C 13.648818003925424 7.857109640321312  5.684065316365714 7.857109640321312  5.684065316365714 7.857109640321312  C 5.305773399369066 7.857109640321312  5 8.144459915369907  5 8.499959401662522  C 5 8.855458887955137  5.305773399369066 9.14283961175687  5.684065316365714 9.14283961175687  C 5.684065316365714 9.14283961175687  13.648818003925424 9.14283961175687  13.648818003925424 9.14283961175687  C 13.648818003925424 9.14283961175687  10.676502151716907 11.899427050836266  10.676502151716907 11.899427050836266  C 10.406987673651852 12.148863236298496  10.404928188964242 12.555791992956983  10.669648862187024 12.808433053854117  C 10.803714374922066 12.935721096316058  10.980216526638973 13  11.15671843289422 13  C 11.33048562011961 13  11.504220467771376 12.938291219051223  11.636934714071533 12.81484297772812  C 11.636934714071533 12.81484297772812  15.796150964811599 8.95765214073191  15.796150964811599 8.95765214073191  C 15.9261304920819 8.836804088845952  16 8.672206671629397  16 8.499929414254154  Z M 9 15.333347885476883  C 9 14.964685565754735  8.690549103375247 14.666695770953709  8.30770751826007 14.666695770953709  C 8.30770751826007 14.666695770953709  2.0769106084614393 14.666695770953709  2.0769106084614393 14.666695770953709  C 1.694752782317309 14.666695770953709  1.3846180025146104 14.368016174647721  1.3846180025146104 14.000043656430591  C 1.3846180025146104 14.000043656430591  1.3846180025146104 2.0000197350987605  1.3846180025146104 2.0000197350987605  C 1.3846180025146104 1.632015850035259  1.6947853555761938 1.3333673813622795  2.0769106084614393 1.3333673813622795  C 2.0769106084614393 1.3333673813622795  8.30770751826007 1.3333673813622795  8.30770751826007 1.3333673813622795  C 8.690549103375247 1.3333673813622795  9 1.0353773473479464  9 0.6667150276258553  C 9 0.2980527079037074  8.690549103375247 0  8.30770751826007 0  C 8.30770751826007 0  2.0769106084614393 0  2.0769106084614393 0  C 0.9318372833334863 0  0 0.8973563758751766  0 2.0000197350987605  C 0 2.0000197350987605  0 14.000012080272597  0 14.000012080272597  C 0 15.102675439496181  0.9318372833334863 16  2.0769106084614393 16  C 2.0769106084614393 16  8.30770751826007 16  8.30770751826007 16  C 8.690549103375247 16  9 15.702010205198974  9 15.333347885476883  Z " fill-rule="nonzero" fill="#333333" stroke="none" transform="matrix(1 0 0 1 15 431 )" />
  </g>
</svg>