<?xml version="1.0" encoding="utf-8"?>
<svg version="1.1" xmlns:xlink="http://www.w3.org/1999/xlink" width="6px" height="10px" xmlns="http://www.w3.org/2000/svg">
  <g transform="matrix(1 0 0 1 -219 -18 )">
    <path d="M 5.9999987330448405 4.99817082100364  C 6.000330857753919 4.850936245870315  5.942458301602265 4.713051150270746  5.837091738217079 4.609799958280577  C 5.837091738217079 4.609799958280577  1.292214127669171 0.15975480216861604  1.292214127669171 0.15975480216861604  C 1.1870966595460266 0.05674751234137579  1.0467740312623295 0  0.8971518531278007 0  C 0.7475296749932718 0  0.6072070467095748 0.05674751234137579  0.5020895785864307 0.15975480216861604  C 0.5020895785864307 0.15975480216861604  0.16739090750625532 0.4873944043001648  0.16739090750625532 0.4873944043001648  C -0.050399852368050044 0.700888598595198  -0.050399852368050044 1.0478776398653593  0.16739090750625532 1.261046637737644  C 0.16739090750625532 1.261046637737644  3.983835974917244 4.997926744389511  3.983835974917244 4.997926744389511  C 3.983835974917244 4.997926744389511  0.16315626825537213 8.738953207194623  0.16315626825537213 8.738953207194623  C 0.0580388001322279 8.841960497021862  0 8.97927676540429  0 9.125698339789011  C 0 9.272282512385107  0.0580388001322279 9.409598645083264  0.16315626825537213 9.512687238862059  C 0.16315626825537213 9.512687238862059  0.4978549393355475 9.84024549827512  0.4978549393355475 9.84024549827512  C 0.6030554326139808 9.94325278810236  0.7432951941117837 10  0.8929173722463126 10  C 1.0425395503808415 10  1.1828621786645384 9.94325278810236  1.2879796467876827 9.84024549827512  C 1.2879796467876827 9.84024549827512  5.837091738217079 5.386135096126798  5.837091738217079 5.386135096126798  C 5.942458301602265 5.282802600185077  6.000330857753919 5.14483629755129  5.9999987330448405 4.99817082100364  Z " fill-rule="nonzero" fill="#7a7a7a" stroke="none" transform="matrix(1 0 0 1 219 18 )" />
  </g>
</svg>