<svg width="17" height="20" viewBox="0 0 17 20" fill="none" xmlns="http://www.w3.org/2000/svg">
<g clip-path="url(#clip0_9045_178250)">
<path d="M13.9477 17.6979V19.6667C13.9477 19.8508 13.7941 20 13.6046 20C13.4151 20 13.2615 19.8508 13.2615 19.6667V17.6979C13.2615 16.165 11.9846 14.9245 10.4064 14.9245C9.65972 14.9245 8.98224 14.555 8.59407 13.936C8.49552 13.7788 8.54677 13.5737 8.70862 13.4779C8.87043 13.3822 9.08152 13.432 9.18012 13.5892C9.44267 14.0079 9.90108 14.2579 10.4064 14.2579C12.3636 14.2578 13.9477 15.7965 13.9477 17.6979ZM7.96047 14.357C8.00082 14.5368 7.88344 14.7144 7.6983 14.7536C6.79537 14.9447 5.87704 14.7534 5.14587 14.2686C4.42203 15.0221 3.46574 14.9245 3.59376 14.9245C2.01575 14.9245 0.738675 16.1649 0.738675 17.6979V19.6667C0.738675 19.8508 0.585055 20 0.395582 20C0.20611 20 0.0524902 19.8508 0.0524902 19.6667V17.6979C0.0524902 15.7967 1.63625 14.2579 3.59367 14.2579C4.38545 14.2579 5.02733 13.6382 5.02733 12.8688V12.7811C3.52977 12.0855 2.47862 10.6237 2.41455 8.92145C1.79827 8.77751 1.33909 8.24166 1.33909 7.60412V5.87631C1.32034 5.03059 1.4496 2.91241 3.03945 1.42368C5.00258 -0.414658 8.1508 -0.297882 10.4657 0.784684C10.6914 0.890296 10.7256 1.18642 10.5382 1.33978C11.711 1.61766 12.7222 2.31798 13.3719 3.32027C13.4055 3.37189 13.4669 3.45292 13.4508 3.58219C13.4409 3.66264 13.4162 3.73071 13.3524 3.79362C12.9343 4.20557 12.704 4.75146 12.704 5.33075V7.60421C12.704 7.78826 12.5504 7.93749 12.3609 7.93749C12.1715 7.93749 12.0178 7.78826 12.0178 7.60421V5.33075C12.0178 4.66263 12.2528 4.02847 12.6844 3.51903C12.0266 2.60515 11.0003 2.0174 9.83963 1.89666L9.2366 1.83392C8.88398 1.79726 8.81481 1.32536 9.1425 1.19434L9.41676 1.08465C5.84492 -0.124988 2.02523 1.21904 2.02523 5.87268V7.60412C2.02523 7.86859 2.18202 8.09843 2.41121 8.21388V6.0532C2.41121 4.76679 3.4886 3.72017 4.81285 3.72017H9.18728C10.5115 3.72017 11.5889 4.7667 11.5889 6.05308V8.78201C11.5889 11.6805 8.67315 13.8822 5.70618 13.0337C5.68688 13.2715 5.62594 13.5009 5.52666 13.7142C6.10382 14.0993 6.83268 14.2546 7.55219 14.1023C7.73733 14.0631 7.92011 14.1771 7.96047 14.357ZM7.00006 12.5478C9.15202 12.5478 10.9027 10.8472 10.9027 8.75668V6.05308C10.9027 5.13428 10.1332 4.38675 9.18728 4.38675H4.81285C3.86695 4.38675 3.09739 5.13432 3.09739 6.0532V8.75668C3.09739 10.8472 4.8481 12.5478 7.00006 12.5478Z" fill="#0084CC"/>
<circle cx="13.5" cy="16.5" r="8.5" fill="white"/>
<path d="M15.465 17.4455C16.0326 16.6704 16.3721 15.7183 16.3721 14.6861C16.3721 12.1023 14.2699 10 11.6861 10C9.10224 10 7 12.1023 7 14.6861C7 17.2699 9.10227 19.3722 11.6861 19.3722C12.7183 19.3722 13.6705 19.0326 14.4456 18.465L15.9806 20L17 18.9805L15.465 17.4455ZM11.6861 17.9303C9.89712 17.9303 8.44188 16.4751 8.44188 14.6861C8.44188 12.8971 9.89712 11.4419 11.6861 11.4419C13.475 11.4419 14.9303 12.8971 14.9303 14.6861C14.9303 16.4751 13.475 17.9303 11.6861 17.9303Z" fill="#0084CC"/>
</g>
<defs>
<clipPath id="clip0_9045_178250">
<rect width="17" height="20" fill="white"/>
</clipPath>
</defs>
</svg>
