<svg width="20" height="20" viewBox="0 0 20 20" fill="none" xmlns="http://www.w3.org/2000/svg">
<g clip-path="url(#clip0_5172_236642)">
<path d="M15.9477 17.6979V19.6667C15.9477 19.8508 15.7941 20 15.6046 20C15.4151 20 15.2615 19.8508 15.2615 19.6667V17.6979C15.2615 16.165 13.9846 14.9245 12.4064 14.9245C11.6597 14.9245 10.9822 14.555 10.5941 13.936C10.4955 13.7788 10.5468 13.5737 10.7086 13.4779C10.8704 13.3822 11.0815 13.432 11.1801 13.5892C11.4427 14.0079 11.9011 14.2579 12.4064 14.2579C14.3636 14.2578 15.9477 15.7965 15.9477 17.6979ZM9.96047 14.357C10.0008 14.5368 9.88344 14.7144 9.6983 14.7536C8.79537 14.9447 7.87704 14.7534 7.14587 14.2686C6.42203 15.0221 5.46574 14.9245 5.59376 14.9245C4.01575 14.9245 2.73867 16.1649 2.73867 17.6979V19.6667C2.73867 19.8508 2.58506 20 2.39558 20C2.20611 20 2.05249 19.8508 2.05249 19.6667V17.6979C2.05249 15.7967 3.63625 14.2579 5.59367 14.2579C6.38545 14.2579 7.02733 13.6382 7.02733 12.8688V12.7811C5.52977 12.0855 4.47862 10.6237 4.41455 8.92145C3.79827 8.77751 3.33909 8.24166 3.33909 7.60412V5.87631C3.32034 5.03059 3.4496 2.91241 5.03945 1.42368C7.00258 -0.414658 10.1508 -0.297882 12.4657 0.784684C12.6914 0.890296 12.7256 1.18642 12.5382 1.33978C13.711 1.61766 14.7222 2.31798 15.3719 3.32027C15.4055 3.37189 15.4669 3.45292 15.4508 3.58219C15.4409 3.66264 15.4162 3.73071 15.3524 3.79362C14.9343 4.20557 14.704 4.75146 14.704 5.33075V7.60421C14.704 7.78826 14.5504 7.93749 14.3609 7.93749C14.1715 7.93749 14.0178 7.78826 14.0178 7.60421V5.33075C14.0178 4.66263 14.2528 4.02847 14.6844 3.51903C14.0266 2.60515 13.0003 2.0174 11.8396 1.89666L11.2366 1.83392C10.884 1.79726 10.8148 1.32536 11.1425 1.19434L11.4168 1.08465C7.84492 -0.124988 4.02523 1.21904 4.02523 5.87268V7.60412C4.02523 7.86859 4.18202 8.09843 4.41121 8.21387V6.0532C4.41121 4.76679 5.4886 3.72017 6.81285 3.72017H11.1873C12.5115 3.72017 13.5889 4.7667 13.5889 6.05308V8.78201C13.5889 11.6805 10.6732 13.8822 7.70618 13.0337C7.68688 13.2715 7.62594 13.5009 7.52666 13.7142C8.10382 14.0993 8.83268 14.2546 9.55219 14.1023C9.73733 14.0631 9.92011 14.1771 9.96047 14.357ZM9.00006 12.5478C11.152 12.5478 12.9027 10.8472 12.9027 8.75668V6.05308C12.9027 5.13428 12.1332 4.38675 11.1873 4.38675H6.81285C5.86695 4.38675 5.09739 5.13432 5.09739 6.0532V8.75668C5.09739 10.8472 6.8481 12.5478 9.00006 12.5478Z" fill="#333333"/>
<circle cx="15.5" cy="16.5" r="8.5" fill="white"/>
<path d="M10.75 14.75H13.75V11.75C13.75 11.336 14.0852 11 14.5 11C14.9148 11 15.25 11.336 15.25 11.75V14.75H18.25C18.6647 14.75 19 15.086 19 15.5C19 15.914 18.6647 16.25 18.25 16.25H15.25V19.25C15.25 19.664 14.9148 20 14.5 20C14.0852 20 13.75 19.664 13.75 19.25V16.25H10.75C10.3353 16.25 10 15.914 10 15.5C10 15.086 10.3353 14.75 10.75 14.75Z" fill="#333333"/>
</g>
<defs>
<clipPath id="clip0_5172_236642">
<rect width="20" height="20" fill="white"/>
</clipPath>
</defs>
</svg>
