<?xml version="1.0" encoding="utf-8"?>
<svg version="1.1" xmlns:xlink="http://www.w3.org/1999/xlink" width="10px" height="6px" xmlns="http://www.w3.org/2000/svg">
  <g transform="matrix(1 0 0 1 -480 -33 )">
    <path d="M 5.001829178996331 5.999998578385837  C 5.1490637541296564 6.000330703086358  5.286948849729242 5.942458148426452  5.3902000417194245 5.837091587757245  C 5.3902000417194245 5.837091587757245  9.840245197831393 1.2922140943604035  9.840245197831393 1.2922140943604035  C 9.94325248765864 1.1870966289468243  10 1.0467740042801534  10 0.897151830002362  C 10 0.7475296557245705  9.94325248765864 0.6072070310578994  9.840245197831393 0.5020895656443132  C 9.840245197831393 0.5020895656443132  9.512605595699824 0.16739090319149977  9.512605595699824 0.16739090319149977  C 9.299111401404787 -0.050399851068920115  8.952122360134638 -0.050399851068920115  8.73895336226235 0.16739090319149977  C 8.73895336226235 0.16739090319149977  5.002073255610469 3.9838358722278686  5.002073255610469 3.9838358722278686  C 5.002073255610469 3.9838358722278686  1.2610467928053595 0.16315626404977213  1.2610467928053595 0.16315626404977213  C 1.158039502978113 0.05803879863619302  1.020723234595721 0  0.8743016602110174 0  C 0.727717487614882 0  0.5904013549167075 0.05803879863619302  0.4873127611379573 0.16315626404977213  C 0.4873127611379573 0.16315626404977213  0.15975450172487626 0.49785492650258556  0.15975450172487626 0.49785492650258556  C 0.05674721189762977 0.6030554170693159  0 0.7432951749522275  0 0.892917349230026  C 0 1.0425395235078172  0.05674721189762977 1.1828621481744814  0.15975450172487626 1.2879796135880677  C 0.15975450172487626 1.2879796135880677  4.613864903873207 5.837091587757245  4.613864903873207 5.837091587757245  C 4.71719739981495 5.942458148426452  4.855163702448692 6.000330703086358  5.001829178996331 5.999998578385837  Z " fill-rule="nonzero" fill="#333333" stroke="none" transform="matrix(1 0 0 1 480 33 )" />
  </g>
</svg>