<?xml version="1.0" encoding="utf-8"?>
<svg version="1.1" xmlns:xlink="http://www.w3.org/1999/xlink" width="19px" height="14px" xmlns="http://www.w3.org/2000/svg">
  <g transform="matrix(1 0 0 1 -14 -228 )">
    <path d="M 7.021588325500488 4.065072072149245  L 3.8071908950805664 3.192708814870325  C 3.7272416055202484 2.9266408869915077  3.876699775457382 2.645708596983298  4.141015529632568 2.565229290130905  C 4.141015529632568 2.565229290130905  4.285776615142822 3.0469879796551513  4.285776615142822 3.0469879796551513  C 4.14101567864418 2.5652293801306305  4.141015529632568 2.565229290130905  4.141015529632568 2.565229290130905  C 4.141015529632568 2.565229290130905  4.142471790313721 2.564788171477335  4.142471790313721 2.564788171477335  L 4.144217014312744 2.56426473307503  L 4.148566722869873 2.5629804969949137  C 4.148566722869873 2.5629804969949137  4.16066312789917 2.559524507543657  4.16066312789917 2.559524507543657  C 4.170218648388982 2.5568507720328455  4.182746300473809 2.553466299785171  4.198101043701172 2.5495671779364906  C 4.228795001283288 2.541773112663876  4.2708887830376625 2.531897893743583  4.323220729827881 2.5215297435153676  C 4.427733518183231 2.5008233417176773  4.574028968811035 2.477962565870799  4.7526326179504395 2.465979993070298  C 5.10902413725853 2.442069447302641  5.60112190246582 2.46104358313774  6.147799015045166 2.63254236467069  C 6.641891360282898 2.7875446915558952  6.986503586173058 2.927912770609328  7.213371276855469 3.0333970611388166  C 7.326833017170429 3.0861522001139  7.410920809954405 3.1302180981112206  7.469578742980957 3.163069865337519  C 7.49890941940248 3.1794966301979777  7.521885726600885 3.1931214889232167  7.538998603820801 3.203628781539227  C 7.538998603820801 3.203628781539227  7.56033182144165 3.2170121006892187  7.56033182144165 3.2170121006892187  L 7.567815780639648 3.2218756858440605  L 7.570781707763672 3.2238374398561835  L 7.572072982788086 3.2246992772255907  C 7.572072982788086 3.2246992772255907  7.572958946228027 3.225293035413258  7.572958946228027 3.225293035413258  C 7.572958946228027 3.225293035413258  7.573237776756287 3.225480924839762  7.2953386306762695 3.643895197710658  C 7.2953386306762695 3.643895197710658  7.572958946228027 3.225293035413258  7.572958946228027 3.225293035413258  C 7.80252081155777 3.379790073840759  7.864477068185806 3.692553039191954  7.710997581481934 3.923636903852896  C 7.558440655469894 4.1533316977537105  7.250729128718376 4.216054051305788  7.021588325500488 4.065072072149245  Z M 3.8071908950805664 3.192708814870325  L 7.021588325500488 4.065072072149245  C 7.021588325500488 4.065072072149245  7.018266677856445 4.063009518444793  7.018266677856445 4.063009518444793  C 7.012766828294843 4.059632608517786  7.001317247748375 4.052757164113133  6.983394622802734 4.042719500376172  C 6.947545997798443 4.022642266033068  6.885818541049957 3.989922616528506  6.794044494628906 3.9472513917742136  C 6.6104405373334885 3.8618829773448815  6.306899815797806 3.7368347340305967  5.8502678871154785 3.593584151275452  C 5.446220517158508 3.466829933168327  5.081689924001694 3.4527667204685795  4.81913423538208 3.470381727327158  C 4.688264161348343 3.4791619017773643  4.584506168961525 3.4957047569084803  4.516334056854248 3.5092112088076335  C 4.4823234267532825 3.515949492927817  4.457417104393244 3.521883115285326  4.4426960945129395 3.525621158719417  C 4.4426960945129395 3.525621158719417  4.428481101989746 3.529381947240333  4.428481101989746 3.529381947240333  C 4.428481101989746 3.529381947240333  4.429915428161621 3.5289355486028793  4.429915428161621 3.5289355486028793  C 4.165694504976273 3.6091964861218027  3.887108162045479 3.4586696430760435  3.8071908950805664 3.192708814870325  Z M 4.429915428161621 6.117395087827917  C 4.1656942665576935 6.197655912847183  3.8871081322431564 6.047128822302179  3.8071911334991455 5.781168114096094  C 3.727241910994053 5.515100156217369  3.876700460910797 5.234168406207512  4.141016006469727 5.1536890693552095  C 4.141016006469727 5.1536890693552095  4.285776615142822 5.635447758879456  4.285776615142822 5.635447758879456  C 4.14101579785347 5.153689129355026  4.141016006469727 5.1536890693552095  4.141016006469727 5.1536890693552095  C 4.141016006469727 5.1536890693552095  4.142472267150879 5.1532479507016395  4.142472267150879 5.1532479507016395  L 4.144217014312744 5.152724752298602  L 4.148567199707031 5.151440276219219  C 4.148567199707031 5.151440276219219  4.160663604736328 5.1479842867679615  4.160663604736328 5.1479842867679615  C 4.170218898914754 5.145310478132373  4.182746548205614 5.141925770338543  4.19810152053833 5.1380267171615275  C 4.228795254603028 5.130232575014148  4.270889014005661 5.120357725467727  4.323220729827881 5.1099895227396726  C 4.4277337566018105 5.0892831715668265  4.5740296840667725 5.066422394782451  4.752633094787598 5.054439772294602  C 5.109024822711945 5.030529342776591  5.601122438907623 5.049503527361542  6.147799491882324 5.221002143894995  C 6.641891837120056 5.3760043657805205  6.986503645777702 5.5163719048356015  7.213371276855469 5.621856120365319  C 7.326833046972752 5.6746111805906425  7.410921279340982 5.7186774685867725  7.469579219818115 5.751529164563288  C 7.498909875750542 5.767955980048593  7.52188572101295 5.781580790023981  7.538998603820801 5.792088080764997  C 7.538998603820801 5.792088080764997  7.560332298278809 5.805470919916454  7.560332298278809 5.805470919916454  L 7.567815780639648 5.810334745070563  L 7.570781707763672 5.812296499082686  L 7.572072982788086 5.813158576451361  C 7.572072982788086 5.813158576451361  7.572958946228027 5.813752334639028  7.572958946228027 5.813752334639028  C 7.572958946228027 5.813752334639028  7.573237508535385 5.8139397140670885  7.298125267028809 6.228160029739232  C 7.298125267028809 6.228160029739232  7.572958946228027 5.813752334639028  7.572958946228027 5.813752334639028  C 7.802520856261253 5.968249328066666  7.864477068185806 6.281012068418548  7.710997581481934 6.5120959630794  C 7.558439567685127 6.741792511974856  7.250724449753761 6.804514205528949  7.021583080291748 6.65352801138527  C 7.021583080291748 6.65352801138527  7.0182671546936035 6.651468337672028  7.0182671546936035 6.651468337672028  C 7.012767305132002 6.648091428916892  7.001317247748375 6.6412164595889145  6.983394622802734 6.631178799601941  C 6.947545979171991 6.6111015840087815  6.885818541049957 6.578381649505087  6.794044494628906 6.535710451000716  C 6.61044055223465 6.450342096571201  6.306899815797806 6.3252941682559545  5.8502678871154785 6.182043690500489  C 5.446220517158508 6.05528956239309  5.081689924001694 6.041226505317867  4.81913423538208 6.058841506551463  C 4.688263937830925 6.0676216210018525  4.584506176412106 6.084164523007825  4.516334056854248 6.097670988031938  C 4.482323423027992 6.104409278714601  4.457416869699955 6.110342608807378  4.4426960945129395 6.114080697944455  C 4.4426960945129395 6.114080697944455  4.428481101989746 6.1178414864653705  4.428481101989746 6.1178414864653705  C 4.428481101989746 6.1178414864653705  4.429915428161621 6.117395087827917  4.429915428161621 6.117395087827917  Z M 4.429915428161621 8.70597726667862  C 4.1656942665576935 8.786238091697886  3.8871081322431564 8.635711481151416  3.8071911334991455 8.369750772945334  C 3.727241910994053 8.103682815066607  3.876700460910797 7.822750585058214  4.141016006469727 7.742271248205913  C 4.141016006469727 7.742271248205913  4.285776615142822 8.224029937730158  4.285776615142822 8.224029937730158  C 4.14101579785347 7.742271308205731  4.141016006469727 7.742271248205913  4.141016006469727 7.742271248205913  C 4.141016006469727 7.742271248205913  4.142472267150879 7.741830129552342  4.142472267150879 7.741830129552342  L 4.144217014312744 7.741306451150771  L 4.148567199707031 7.740022455069922  C 4.148567199707031 7.740022455069922  4.160663604736328 7.736566465618665  4.160663604736328 7.736566465618665  C 4.170218898914754 7.733892656983076  4.182746548205614 7.7305079491892466  4.19810152053833 7.726608896012231  C 4.228795254603028 7.7188147538648515  4.270889014005661 7.708939424319895  4.323220729827881 7.69857122159184  C 4.4277337566018105 7.677864870418996  4.5740296840667725 7.655004573633156  4.752633094787598 7.643021951145307  C 5.109024822711945 7.619111521627294  5.601122438907623 7.6380857062122445  6.147799491882324 7.809584322745698  C 6.641891837120056 7.964586544631223  6.986503645777702 8.104954083686303  7.213371276855469 8.210438299216023  C 7.326833046972752 8.263193359441345  7.410921279340982 8.307259167438941  7.469579219818115 8.340110863415456  C 7.498909875750542 8.35653767890076  7.52188572101295 8.37016344887322  7.538998603820801 8.380670739614235  C 7.538998603820801 8.380670739614235  7.560332298278809 8.394053098767158  7.560332298278809 8.394053098767158  L 7.567815780639648 8.3989174039198  L 7.570781707763672 8.400878677933388  L 7.572072982788086 8.401740755302063  C 7.572072982788086 8.401740755302063  7.572958946228027 8.402334033491195  7.572958946228027 8.402334033491195  C 7.572958946228027 8.402334033491195  7.573237508535385 8.402521412919256  7.298125267028809 8.816741728591401  C 7.298125267028809 8.816741728591401  7.572958946228027 8.402334033491195  7.572958946228027 8.402334033491195  C 7.802520856261253 8.556831026918836  7.864477068185806 8.869594247269251  7.710997581481934 9.100678141930102  C 7.558439567685127 9.33037469082556  7.250724449753761 9.393096864378187  7.021583080291748 9.242110670234508  C 7.021583080291748 9.242110670234508  7.0182671546936035 9.240050516522732  7.0182671546936035 9.240050516522732  C 7.012767305132002 9.236673607767596  7.001317247748375 9.229798638439616  6.983394622802734 9.219760978452644  C 6.947545979171991 9.199683762859484  6.885818541049957 9.166964308354327  6.794044494628906 9.124293109849955  C 6.61044055223465 9.038924755420439  6.306899815797806 8.913876827105193  5.8502678871154785 8.770626349349726  C 5.446220517158508 8.64387222124233  5.081689924001694 8.629808204170034  4.81913423538208 8.647423205403632  C 4.688263937830925 8.65620331985402  4.584506176412106 8.672746701858529  4.516334056854248 8.68625316688264  C 4.482323423027992 8.692991457565306  4.457416869699955 8.698925267656616  4.4426960945129395 8.702663356793693  C 4.4426960945129395 8.702663356793693  4.428481101989746 8.706423665316073  4.428481101989746 8.706423665316073  C 4.428481101989746 8.706423665316073  4.429915428161621 8.70597726667862  4.429915428161621 8.70597726667862  Z M 11.45589828491211 4.062309680580913  L 14.66614818572998 3.1927085748710575  C 14.746097438037395 2.9266406169923322  14.596639573574066 2.645708656983115  14.332324028015137 2.565229290130905  C 14.332324028015137 2.565229290130905  14.187726020812988 3.0464436613165784  14.187726020812988 3.0464436613165784  C 14.332323491573334 2.5652292601309967  14.332324028015137 2.565229290130905  14.332324028015137 2.565229290130905  C 14.332324028015137 2.565229290130905  14.330867767333984 2.564787931478068  14.330867767333984 2.564787931478068  L 14.329122543334961 2.56426473307503  L 14.324772834777832 2.5629804969949137  C 14.324772834777832 2.5629804969949137  14.312675476074219 2.559524507543657  14.312675476074219 2.559524507543657  C 14.303119955584407 2.5568507713297226  14.290593008510768 2.553466229472886  14.275238037109375 2.5495671779364906  C 14.244544077664614 2.5417731103201335  14.202450785785913 2.5318976865567153  14.150118827819824 2.5215295035161  C 14.045606032013893 2.5008230923434382  13.899309635162354 2.4779625808707535  13.72070598602295 2.465979993070298  C 13.36431422829628 2.4420694904275093  12.872216701507568 2.461043643137557  12.325539588928223 2.63254236467069  C 11.83144697546959 2.787544736555758  11.48683550953865 2.927912785609282  11.259967803955078 3.0333970611388166  C 11.146506026387215 3.0861522001139  11.062417346984148 3.13021791811177  11.003759384155273 3.1630696253382515  C 10.974428718909621 3.179496448323533  10.951452389359474 3.193121431735891  10.93433952331543 3.203628781539227  C 10.93433952331543 3.203628781539227  10.913005828857422 3.217011860689951  10.913005828857422 3.217011860689951  L 10.905523300170898 3.2218756858440605  L 10.902557373046875 3.2238374398561835  L 10.901265144348145 3.2246992772255907  C 10.901265144348145 3.2246992772255907  10.900379180908203 3.225293035413258  10.900379180908203 3.225293035413258  C 10.900379180908203 3.225293035413258  10.900101035833359 3.22548038484141  11.175216674804688 3.639705770498079  C 11.175216674804688 3.639705770498079  10.900379180908203 3.225293035413258  10.900379180908203 3.225293035413258  C 10.670817270874977 3.3797901188406216  10.608861088752747 3.6925530241919997  10.762340545654297 3.923636903852896  C 10.914897590875626 4.153331952752932  11.222609862685204 4.216054081305696  11.451750755310059 4.0650715921507095  C 11.451750755310059 4.0650715921507095  11.453950881958008 4.0636138366002275  11.453950881958008 4.0636138366002275  C 11.453950881958008 4.0636138366002275  11.45486068725586 4.063006158455049  11.45486068725586 4.063006158455049  C 11.45486068725586 4.063006158455049  11.455898463726044 4.062309590581188  11.178018569946289 3.643924237622019  C 11.178018569946289 3.643924237622019  11.45589828491211 4.062309680580913  11.45589828491211 4.062309680580913  Z M 14.66614818572998 3.1927085748710575  L 11.451750755310059 4.0650715921507095  C 11.451750755310059 4.0650715921507095  11.45486068725586 4.063006158455049  11.45486068725586 4.063006158455049  C 11.460360536817461 4.0596292489967905  11.472021836787462 4.052757177238092  11.489944458007812 4.042719500376172  C 11.525793112814426 4.022642260408085  11.587519526481628 3.9899226202784943  11.679293632507324 3.9472513917742136  C 11.862897664308548 3.8618829623449273  12.166438490152359 3.736834779030459  12.62307071685791 3.593584151275452  C 13.02711820602417 3.4668299481682814  13.391649603843689 3.4527664448444204  13.654205322265625 3.470381487327891  C 13.785075634717941 3.479161615840737  13.888833150267601 3.4957047934708685  13.957005500793457 3.5092112088076335  C 13.991016123443842 3.515949467146646  14.015922461636364 3.52188290270785  14.030643463134766 3.5256209187201497  C 14.030643463134766 3.5256209187201497  14.0448579788208 3.529381947240333  14.0448579788208 3.529381947240333  L 14.043423652648926 3.5289355486028793  C 14.043423652648926 3.5289355486028793  14.181683540344238 3.0665546399316836  14.181683540344238 3.0665546399316836  C 14.042806595563889 3.5287477791760096  14.043423652648926 3.5289355486028793  14.043423652648926 3.5289355486028793  C 14.307644635438919 3.6091965911214823  14.586230956017971 3.4586694330766843  14.66614818572998 3.1927085748710575  Z M 11.45589828491211 6.650768979806683  L 14.66614818572998 5.781168114096094  C 14.746097393333912 5.515100156217369  14.59663861989975 5.23416838370758  14.33232307434082 5.1536890693552095  C 14.33232307434082 5.1536890693552095  14.187562942504883 5.635447758879456  14.187562942504883 5.635447758879456  C 14.332323744893074 5.1536891593549345  14.33232307434082 5.1536890693552095  14.33232307434082 5.1536890693552095  C 14.33232307434082 5.1536890693552095  14.330866813659668 5.1532479507016395  14.330866813659668 5.1532479507016395  L 14.329122543334961 5.152724272300067  L 14.324771881103516 5.151440276219219  C 14.324771881103516 5.151440276219219  14.312675476074219 5.1479842867679615  14.312675476074219 5.1479842867679615  C 14.303120190277696 5.1453105067260365  14.29059300199151 5.141925741979255  14.275238037109375 5.1380267171615275  C 14.244544301182032 5.130232574545399  14.202449828386307 5.120357684217853  14.150117874145508 5.1099895227396726  C 14.045604854822159 5.089283225941662  13.899309411644936 5.0664224004074345  13.72070598602295 5.054439772294602  C 13.36431422829628 5.030529273401802  12.872216761112213 5.049503527361542  12.325539588928223 5.221002143894995  C 11.831447094678879 5.3760043657805205  11.486835524439812 5.5163723698341816  11.259967803955078 5.621856600363853  C 11.146506026387215 5.674611649339212  11.062417335808277 5.718677472336761  11.003759384155273 5.751529164563288  C 10.974428726360202 5.7679559781736  10.951452407985926 5.781580791898976  10.93433952331543 5.792088080764997  C 10.93433952331543 5.792088080764997  10.913005828857422 5.805471399914989  10.913005828857422 5.805471399914989  L 10.905523300170898 5.810334745070563  L 10.902556419372559 5.812296499082686  L 10.901265144348145 5.813158576451361  C 10.901265144348145 5.813158576451361  10.900379180908203 5.813752334639028  10.900379180908203 5.813752334639028  C 10.900379180908203 5.813752334639028  10.900100350379944 5.81393986406663  11.175788879394531 6.229027387091791  C 11.175788879394531 6.229027387091791  10.900379180908203 5.813752334639028  10.900379180908203 5.813752334639028  C 10.670817241072655 5.968249253066896  10.608861058950424 6.281012068418548  10.762340545654297 6.5120959630794  C 10.914897590875626 6.741791026979388  11.222609832882881 6.80451329053174  11.451750755310059 6.653530891376479  C 11.451750755310059 6.653530891376479  11.453950881958008 6.652073135825998  11.453950881958008 6.652073135825998  C 11.453950881958008 6.652073135825998  11.45486068725586 6.651465457680818  11.45486068725586 6.651465457680818  C 11.45486068725586 6.651465457680818  11.4558986723423 6.650769099806317  11.177999496459961 6.2323547369356955  C 11.177999496459961 6.2323547369356955  11.45589828491211 6.650768979806683  11.45589828491211 6.650768979806683  Z M 14.66614818572998 5.781168114096094  L 11.451750755310059 6.653530891376479  C 11.451750755310059 6.653530891376479  11.45486068725586 6.651465457680818  11.45486068725586 6.651465457680818  C 11.460360551252961 6.648088544941321  11.472021821886301 6.641216476463863  11.489944458007812 6.631178799601941  C 11.525793116539717 6.611101582133786  11.587519526481628 6.578381653255077  11.679293632507324 6.535710451000716  C 11.86289767920971 6.450342074071269  12.166438639163971 6.325294183255909  12.62307071685791 6.182043690500489  C 13.027118355035782 6.055289517393226  13.39164936542511 6.0412260871941434  13.654205322265625 6.058841026552928  C 13.785075411200523 6.067621231003042  13.8888333812356 6.0841645211328315  13.957005500793457 6.097670988031938  C 13.991016138345003 6.104409279652099  14.015922687016428 6.110342608573004  14.030643463134766 6.114080697944455  C 14.030643463134766 6.114080697944455  14.0448579788208 6.1178414864653705  14.0448579788208 6.1178414864653705  C 14.0448579788208 6.1178414864653705  14.043423652648926 6.117395087827917  14.043423652648926 6.117395087827917  C 14.307644605636597 6.197655957847045  14.586231209337711 6.047128852302087  14.66614818572998 5.781168114096094  Z M 11.45589828491211 9.23935163865592  L 14.66614818572998 8.369750772945334  C 14.746097393333912 8.103682815066607  14.59663861989975 7.822750562558283  14.33232307434082 7.742271248205913  C 14.33232307434082 7.742271248205913  14.187562942504883 8.224029937730158  14.187562942504883 8.224029937730158  C 14.332323744893074 7.742271338205639  14.33232307434082 7.742271248205913  14.33232307434082 7.742271248205913  C 14.33232307434082 7.742271248205913  14.330866813659668 7.741829649553807  14.330866813659668 7.741829649553807  L 14.329122543334961 7.741306451150771  L 14.324771881103516 7.740022455069922  C 14.324771881103516 7.740022455069922  14.312675476074219 7.736566465618665  14.312675476074219 7.736566465618665  C 14.303120190277696 7.733892685576739  14.29059300199151 7.730507920829957  14.275238037109375 7.726608896012231  C 14.244544301182032 7.718814753396103  14.202449828386307 7.708939383070022  14.150117874145508 7.69857122159184  C 14.045604854822159 7.6778649247938295  13.899309411644936 7.655004579258137  13.72070598602295 7.643021951145307  C 13.36431422829628 7.619111452252506  12.872216761112213 7.6380857062122445  12.325539588928223 7.809584322745698  C 11.831447094678879 7.964586544631223  11.486835524439812 8.10495406868635  11.259967803955078 8.210438299216023  C 11.146506026387215 8.26319334819138  11.062417335808277 8.307260131186  11.003759384155273 8.340111823412526  C 10.974428726360202 8.356538637022839  10.951452407985926 8.370163450748214  10.93433952331543 8.380670739614235  C 10.93433952331543 8.380670739614235  10.913005828857422 8.394053098767158  10.913005828857422 8.394053098767158  L 10.905523300170898 8.3989174039198  L 10.902556419372559 8.400878677933388  L 10.901265144348145 8.401740755302063  C 10.901265144348145 8.401740755302063  10.900379180908203 8.402334993488266  10.900379180908203 8.402334993488266  C 10.900379180908203 8.402334993488266  10.900100350379944 8.402522042917333  11.175788879394531 8.817609565942494  C 11.175788879394531 8.817609565942494  10.900379180908203 8.402334993488266  10.900379180908203 8.402334993488266  C 10.670817241072655 8.556831911916134  10.608861058950424 8.869594247269251  10.762340545654297 9.100678141930102  C 10.914897590875626 9.330373205830092  11.222609832882881 9.39309594938098  11.451750755310059 9.242113550225717  C 11.451750755310059 9.242113550225717  11.453950881958008 9.240655314676701  11.453950881958008 9.240655314676701  C 11.453950881958008 9.240655314676701  11.45486068725586 9.240047636531521  11.45486068725586 9.240047636531521  C 11.45486068725586 9.240047636531521  11.4558986723423 9.23935127865702  11.177999496459961 8.8209369157864  C 11.177999496459961 8.8209369157864  11.45589828491211 9.23935163865592  11.45589828491211 9.23935163865592  Z M 14.66614818572998 8.369750772945334  L 11.451750755310059 9.242113550225717  C 11.451750755310059 9.242113550225717  11.45486068725586 9.240047636531521  11.45486068725586 9.240047636531521  C 11.460360551252961 9.236670723792024  11.472021821886301 9.229798655314566  11.489944458007812 9.219760978452644  C 11.525793116539717 9.19968376098449  11.587519526481628 9.166964312104314  11.679293632507324 9.124293109849955  C 11.86289767920971 9.038924732920506  12.166438639163971 8.913876842105147  12.62307071685791 8.770626349349726  C 13.027118355035782 8.643872176242464  13.39164936542511 8.629808266044845  13.654205322265625 8.647423205403632  C 13.785075411200523 8.656203409853745  13.8888333812356 8.672746699983534  13.957005500793457 8.68625316688264  C 13.991016138345003 8.692991458502801  14.015922687016428 8.698925267422242  14.030643463134766 8.702663356793693  C 14.030643463134766 8.702663356793693  14.0448579788208 8.706423665316073  14.0448579788208 8.706423665316073  C 14.0448579788208 8.706423665316073  14.043423652648926 8.70597726667862  14.043423652648926 8.70597726667862  C 14.307644605636597 8.78623813669775  14.586231209337711 8.635711511151325  14.66614818572998 8.369750772945334  Z M 18 1.432999386044951  C 18.000000000000004 1.2390392530709569  17.84382075071335 1.0817813380705004  17.651094436645508 1.0817813380705004  C 17.649916882859543 1.0817813380705004  17.64874174410943 1.0817813380705004  17.647607803344727 1.0817813380705004  C 17.647607803344727 1.0817813380705004  16.464818954467773 1.0817813380705004  16.464818954467773 1.0817813380705004  C 16.464818954467773 1.0817813380705004  16.464818954467773 0.6743686616193467  16.464818954467773 0.6743686616193467  C 16.471186467446387 0.5131157038129902  16.367562040686607 0.36819434740756113  16.213607788085938 0.3231506436448046  C 15.392460286617279 0.10653696481640276  14.546888291835785 -0.0020772250769062472  13.698002815246582 3.0082865941508756E-05  C 12.302383422851562 3.0082865941508756E-05  10.400853753089905 0.3161263150852167  8.994767189025879 1.756119999781416  C 7.599147796630859 0.3020775979662241  5.68366003036499 3.0082865941508756E-05  4.291529655456543 3.0082865941508756E-05  C 3.44264417886734 -0.0020772250769062472  2.5970731377601624 0.10653696481640276  1.775925636291504 0.3231506436448046  C 1.621971383690834 0.36819434740756113  1.5183464800938964 0.5131157038129902  1.5247139930725098 0.6743686616193467  C 1.5247139930725098 0.6743686616193467  1.5247139930725098 1.078269068791027  1.5247139930725098 1.078269068791027  C 1.5247139930725098 1.078269068791027  0.3489048480987549 1.078269068791027  0.3489048480987549 1.078269068791027  C 0.1562221497297287 1.078269068791027  0 1.2355269837914835  0 1.4294871167654775  C 0 1.4294871167654775  0 12.647389236276545  0 12.647389236276545  C 0 12.84134936925054  0.1562221497297287 12.99860704425173  0.3489048480987549 12.99860704425173  C 0.408829253166914 12.998431435261375  0.46770692616701126 12.982713385264066  0.5198681950569153 12.952947663618207  C 0.5547586791217327 12.935386765344473  4.043807029724121 11.014225781193923  8.914518356323242 12.250513007664912  C 8.914518356323242 12.250513007664912  8.998255729675293 12.250513007664912  8.998255729675293 12.250513007664912  C 9.026080891489983 12.253893480784168  9.054167941212654 12.253893480784168  9.081993103027344 12.250513007664912  C 13.966660499572754 11.00368921335477  17.455708319321275 12.921338046350487  17.476642608642578 12.952947663618207  C 17.584585033357143 13.015683970877696  17.717605747282505 13.015683970877696  17.82554817199707 12.952947663618207  C 17.932836405932903 12.89060647765269  17.999258577183355 12.775627182354878  18 12.650900905557851  C 18 12.650900905557851  18 1.432999386044951  18 1.432999386044951  Z M 7.093235492706299 11.221443188702636  C 4.9228293895721436 10.957239455133724  2.7213268280029297 11.255864183639169  0.6978096961975098 12.088953180795214  C 0.6978096961975098 12.088953180795214  0.6978096961975098 1.7842173140197675  0.6978096961975098 1.7842173140197675  L 1.5316922664642334 1.7842173140197675  C 1.5316922664642334 1.7842173140197675  1.5316922664642334 10.592764147624509  1.5316922664642334 10.592764147624509  C 1.5295116112101823 10.786724280598502  1.6839454621076584 10.945739151251814  1.8766281604766846 10.947934263536032  C 1.8954690210521221 10.948153774755665  1.9143099393695593 10.946835601498863  1.932932734489441 10.943981955599693  C 2.6547296047210693 10.83304098172568  3.3834614157676697 10.774344237604954  4.113588333129883 10.768373531610637  C 5.124976277351379 10.750724829229906  6.132133483886719 10.903854318081589  7.093235492706299 11.221443188702636  Z M 8.649351119995117 11.189834325182613  C 7.923629105091095 10.712177883137047  6.507075548171997 10.069449584941575  4.113588333129883 10.069449584941575  C 3.4789740443229675 10.070898359035095  2.8451008200645447 10.111946375228294  2.215545654296875 10.1923752897345  C 2.215545654296875 10.1923752897345  2.215545654296875 0.9518307947195435  2.215545654296875 0.9518307947195435  C 2.8948633670806885 0.7994899997105239  3.5885732173919678 0.7217391498425411  4.28455114364624 0.7200269622561645  C 5.589455246925354 0.7200269622561645  7.389804363250732 1.0220745603139574  8.638883590698242 2.440995109331851  C 8.638883590698242 2.440995109331851  8.649351119995117 11.189834325182613  8.649351119995117 11.189834325182613  Z M 9.347160339355469 11.186322655901309  C 9.347160339355469 11.186322655901309  9.347160339355469 2.440995109331851  9.347160339355469 2.440995109331851  C 10.596239566802979 1.03612327743295  12.396589159965515 0.7200269622561645  13.701493263244629 0.7200269622561645  C 14.397427558898926 0.7220903676767662  15.091136991977692 0.7997973187724916  15.770498275756836 0.9518307947195435  C 15.770498275756836 0.9518307947195435  15.770498275756836 10.1923752897345  15.770498275756836 10.1923752897345  C 15.144475817680359 10.111200037506347  14.514092922210693 10.068967170710927  13.88292407989502 10.06593791566027  C 11.503392934799194 10.06593791566027  10.083349525928497 10.708666213855741  9.347160339355469 11.186322655901309  Z M 17.31265640258789 1.7842173140197675  C 17.31265640258789 1.7842173140197675  17.298702239990234 12.088953180795214  17.298702239990234 12.088953180795214  C 15.270867347717285 11.253581250607382  13.064304828643799 10.954912662235813  10.88931941986084 11.221443188702636  C 11.854957163333893 10.902712881565606  12.866913199424744 10.74953946909799  13.88292407989502 10.768373531610637  C 14.61763048171997 10.772500342451838  15.351072192192078 10.830011268473298  16.07753562927246 10.940469326321317  C 16.268037661910057 10.969576514352223  16.44593421369791 10.837695715018002  16.474849700927734 10.645930705343815  C 16.477684552548453 10.627184446938166  16.478993089927826 10.608218249828834  16.478775024414062 10.589252478343205  C 16.478775024414062 10.589252478343205  16.478775024414062 1.7842173140197675  16.478775024414062 1.7842173140197675  L 17.31265640258789 1.7842173140197675  Z M 7.021588325500488 4.065072072149245  L 3.8071908950805664 3.192708814870325  L 7.021588325500488 4.065072072149245  Z M 4.427419185638428 3.529681466326109  L 4.428481101989746 3.529381947240333  L 4.427419185638428 3.529681466326109  Z M 4.427419185638428 6.118141005551147  L 4.428481101989746 6.1178414864653705  L 4.427419185638428 6.118141005551147  Z M 4.427419185638428 8.706723184401849  L 4.428481101989746 8.706423665316073  L 4.427419185638428 8.706723184401849  Z M 11.45589828491211 4.062309680580913  L 11.451750755310059 4.0650715921507095  L 14.66614818572998 3.1927085748710575  L 11.45589828491211 4.062309680580913  Z M 14.045919418334961 3.529681466326109  L 14.0448579788208 3.529381947240333  L 14.045919418334961 3.529681466326109  Z M 11.45589828491211 6.650768979806683  L 11.451750755310059 6.653530891376479  L 14.66614818572998 5.781168114096094  L 11.45589828491211 6.650768979806683  Z M 14.045920372009277 6.118141005551147  L 14.0448579788208 6.1178414864653705  L 14.045920372009277 6.118141005551147  Z M 11.45589828491211 9.23935163865592  L 11.451750755310059 9.242113550225717  L 14.66614818572998 8.369750772945334  L 11.45589828491211 9.23935163865592  Z M 14.045920372009277 8.706723184401849  L 14.0448579788208 8.706423665316073  L 14.045920372009277 8.706723184401849  Z " fill-rule="nonzero" fill="#333333" stroke="none" transform="matrix(1 0 0 1 14 228 )" />
  </g>
</svg>