<?xml version="1.0" encoding="utf-8"?>
<svg version="1.1" xmlns:xlink="http://www.w3.org/1999/xlink" width="15px" height="17px" xmlns="http://www.w3.org/2000/svg">
  <g transform="matrix(1 0 0 1 -15 -272 )">
    <path d="M 14.829109079490841 1.9304568034827612  C 14.999801022200446 1.6326848745452351  15.044966603230115 1.2770186695392702  14.95402588219125 0.9445931438264654  C 14.867967839930742 0.6181853482907282  14.65801035767089 0.3399190486982404  14.370743353013575 0.1712162352694253  C 14.083272950333225 0.001683335888480908  13.74148267532528 -0.04417559210464281  13.420850401229387 0.043599696763866325  C 13.100624990922453 0.13158247689149472  12.827803327409654 0.34552179635706953  12.66240102041384 0.6385210117669017  C 12.66240102041384 0.6385210117669017  12.454071586060095 1.008297658812853  12.454071586060095 1.008297658812853  C 12.256117788010787 0.8923014772275386  12.003233542511028 0.960571197208836  11.887472233544818 1.161437539566853  C 11.887472233544818 1.161437539566853  10.82914080122748 3.0013981669918723  10.82914080122748 3.0013981669918723  C 10.82914080122748 3.0013981669918723  10.466599287482104 2.788911364071623  10.466599287482104 2.788911364071623  C 10.370572362623925 2.7322620873788934  10.256235314019179 2.716906589823788  10.149222228540877 2.7463725466925446  C 10.042005761975263 2.7760459969796294  9.950861371941805 2.847843346903795  9.895727255496766 2.9462014845759588  C 9.782814221685513 3.1493504207945984  9.85157867305013 3.4074885568068645  10.049939334888396 3.524107272627363  C 10.049939334888396 3.524107272627363  10.41248193251999 3.736594075547612  10.41248193251999 3.736594075547612  L 6.870878838790785 9.996444925379395  L 5.995853159719811 12.380694854902844  C 5.995853159719811 12.380694854902844  5.579194291012321 13.175236994678249  5.579194291012321 13.175236994678249  C 5.33526146379484 13.608095717480559  5.3613026092176135 14.146160039974106  5.645924829889477 14.552250421152266  C 5.645924829889477 14.552250421152266  4.708441291411408 15.725077524206704  4.708441291411408 15.725077524206704  C 4.708441291411408 15.725077524206704  4.445995044038658 15.053793621896471  4.445995044038658 15.053793621896471  C 4.327588984958441 14.754569150503123  4.05354595950341 14.549552801589243  3.738406753015787 14.524444519590531  C 3.423064080762241 14.499128746332701  3.1209456332789487 14.658078166421234  2.9583915590987875 14.934684380477785  C 2.9583915590987875 14.934684380477785  2.8084513462625544 15.193860102338132  2.8084513462625544 15.193860102338132  C 2.8084513462625544 15.193860102338132  2.666852179814411 13.493967890005205  2.666852179814411 13.493967890005205  C 2.634300680293055 13.091820188223606  2.328927043058681 12.768524929992887  1.9362745266289527 12.719968421302486  C 1.5434186460476342 12.671619403871205  1.1715176223911672 12.911704129113044  1.0459909135289305 13.294346236096937  C 1.0459909135289305 13.294346236096937  0.021025523342492292 16.43059921163808  0.021025523342492292 16.43059921163808  C -0.050587778991634996 16.65242377761795  0.06659766120115837 16.8914711027036  0.28347201416624834 16.966173466285547  C 0.3241613906849084 16.98547156334651  0.36790247001907495 16.997092723762062  0.41266078503638715 16.999997788970933  C 0.591694045105636 17.00062032192409  0.7511963529613325 16.88420944411803  0.8085683472635594 16.711148951500753  C 0.8085683472635594 16.711148951500753  1.82926135647204 13.574894870445076  1.82926135647204 13.574894870445076  C 1.82926135647204 13.574894870445076  1.975132795932912 15.300103365608939  1.975132795932912 15.300103365608939  C 2.005242934895435 15.668220013487277  2.2646376530438306 15.974292655119946  2.617414503597093 16.057710264799994  C 2.970191421893244 16.141127926301035  3.3351749651584774 15.9825927286895  3.5209220027529264 15.665730187472505  C 3.5209220027529264 15.665730187472505  3.675134624087666 15.406346628879747  3.675134624087666 15.406346628879747  C 3.675134624087666 15.406346628879747  3.933512233570832 16.073688266361373  3.933512233570832 16.073688266361373  C 4.043170111502446 16.354859685412833  4.291171618948817 16.555518152172695  4.584745486535207 16.60013207647169  C 4.878319354121596 16.64474594463128  5.172910804573435 16.526674815907445  5.358454359466239 16.290324894464007  C 5.358454359466239 16.290324894464007  6.3293026254397775 15.036777542187576  6.3293026254397775 15.036777542187576  C 6.436722574707038 15.065413473562028  6.547397933889768 15.079731675615063  6.658479953632792 15.079316635945286  C 7.105045851187046 15.082844287480237  7.519671044507186 14.842967232711786  7.74590397591865 14.450157259442477  C 7.74590397591865 14.450157259442477  8.16256284462614 13.74048436493555  8.16256284462614 13.74048436493555  L 9.75005945115904 11.77290839088783  L 13.329096181244852 5.436487669773705  C 13.329096181244852 5.436487669773705  13.691637694990227 5.648974749072587  13.691637694990227 5.648974749072587  C 13.788274923999705 5.705416534506197  13.858667948277816 5.798586742937957  13.887353945428929 5.908357754908078  C 13.916243427398653 6.017298689562901  13.901188410841526 6.133502647422802  13.845850858268076 6.2312381990387875  C 13.845850858268076 6.2312381990387875  12.1792142995519 9.176378666040643  12.1792142995519 9.176378666040643  C 12.116349224939611 9.273076700903205  12.094987760378597 9.391770536598873  12.120215121065392 9.505069141805325  C 12.145442587600451 9.618160203931666  12.21481819201944 9.71589601465262  12.312472690583506 9.77545035898333  C 12.408499615441686 9.832307183074589  12.522836664046432 9.847662140827676  12.629849749524734 9.81819618395892  C 12.737066216090348 9.788522733671835  12.828210606123806 9.716725936504934  12.883344722568845 9.618367798832772  C 12.883344722568845 9.618367798832772  14.549980197398803 6.673226779073651  14.549980197398803 6.673226779073651  C 14.7161962827797 6.38002003785737  14.761158474254197 6.031409053871398  14.674897000099211 5.704378715463645  C 14.588635525944225 5.37776335957413  14.37888147557885 5.099497180897295  14.091614470921536 4.930794367468479  C 14.091614470921536 4.930794367468479  13.729071873289943 4.7183078409268635  13.729071873289943 4.7183078409268635  C 13.729071873289943 4.7183078409268635  14.770720128944884 2.878139376769433  14.770720128944884 2.878139376769433  C 14.884446898801915 2.6762355090211614  14.81751278407664 2.4185122173378173  14.620779645137096 2.3002334505287125  C 14.620779645137096 2.3002334505287125  14.829109079490841 1.9304568034827612  14.829109079490841 1.9304568034827612  Z M 13.174884101853221 1.4332711264640345  C 13.174884101853221 1.4332711264640345  13.383212452320748 1.0634944103234247  13.383212452320748 1.0634944103234247  C 13.438346568765787 0.965136324472255  13.52989803428473 0.8931315135178822  13.63752142391433 0.8638731018884465  C 13.744534458585466 0.836897275482801  13.857650687191086 0.852045296893244  13.954084484306085 0.9064119883621835  C 14.050721764122729 0.9626462782182585  14.12111393949777 1.0560241808746962  14.150003421467494 1.165587641127872  C 14.176451489954253 1.2747360670418155  14.161600703387508 1.390109723028778  14.108297647583933 1.488467808879948  C 14.108297647583933 1.488467808879948  13.899967129343972 1.8582445941152161  13.899967129343972 1.8582445941152161  L 13.174884101853221 1.4332711264640345  Z M 8.78327955210353 11.598603019810495  L 7.704197118148873 12.928927250965781  L 7.495867683795128 12.805667907986075  L 6.879219885178874 12.440042191637042  L 7.470843460744639 10.825225955790474  L 8.78327955210353 11.598603019810495  Z M 6.7835999849990145 14.223767782119994  C 6.669466249738693 14.249498596194682  6.550042379160777 14.225427673327202  6.4542188861970775 14.156950483678866  C 6.278237341645127 14.031824013019385  6.2241206048368705 13.791116084187859  6.3293026254397775 13.60021004776148  C 6.3293026254397775 13.60021004776148  6.5376320597935225 13.23064206658384  6.5376320597935225 13.23064206658384  L 7.262514026390895 13.655614014152537  C 7.262514026390895 13.655614014152537  7.05418459203715 14.021032999283692  7.05418459203715 14.021032999283692  C 6.995795374753569 14.12437123810068  6.89773366945217 14.197829422805986  6.7835999849990145 14.223767782119994  Z M 12.591601572675545 5.011514616690473  L 9.258327371356977 10.90179610345145  L 7.816703423656945 10.051848891770453  L 11.149976541089295 4.16156768138811  L 12.591601572675545 5.011514616690473  Z M 13.841578178798015 2.8059268910232547  L 13.008260441383035 4.276318708134734  L 11.566636493683003 3.4263717728323706  L 12.399954231097981 1.9559800939102083  L 13.841578178798015 2.8059268910232547  Z " fill-rule="nonzero" fill="#333333" stroke="none" transform="matrix(1 0 0 1 15 272 )" />
  </g>
</svg>