<?xml version="1.0" encoding="utf-8"?>
<svg version="1.1" xmlns:xlink="http://www.w3.org/1999/xlink" width="15px" height="14px" xmlns="http://www.w3.org/2000/svg">
  <g transform="matrix(1 0 0 1 -20 -153 )">
    <path d="M 0 11.454545454545453  L 3.4375 11.454545454545453  L 3.4375 12.727272727272727  L 0 12.727272727272727  L 0 11.454545454545453  Z M 4.375 10.181818181818182  L 6.875 10.181818181818182  C 7.044270833333334 10.181818181818182  7.190755208333334 10.244791666666666  7.314453125 10.370738636363637  C 7.438151041666667 10.496685606060606  7.5 10.645833333333334  7.5 10.818181818181818  L 7.5 13.363636363636363  C 7.5 13.535984848484848  7.438151041666667 13.685132575757574  7.314453125 13.811079545454545  C 7.190755208333334 13.937026515151516  7.044270833333334 14  6.875 14  L 4.375 14  C 4.205729166666667 14  4.059244791666667 13.937026515151516  3.9355468750000004 13.811079545454545  C 3.8118489583333335 13.685132575757574  3.75 13.535984848484848  3.75 13.363636363636363  L 3.75 10.818181818181818  C 3.75 10.645833333333334  3.8118489583333335 10.496685606060606  3.9355468750000004 10.370738636363637  C 4.059244791666667 10.244791666666666  4.205729166666667 10.181818181818182  4.375 10.181818181818182  Z M 0 6.363636363636364  L 8.4375 6.363636363636364  L 8.4375 7.636363636363636  L 0 7.636363636363636  L 0 6.363636363636364  Z M 0 1.2727272727272732  L 2.1875 1.2727272727272732  L 2.1875 2.545454545454545  L 0 2.545454545454545  L 0 1.2727272727272732  Z M 7.812500000000001 11.454545454545453  L 15 11.454545454545453  L 15 12.727272727272727  L 7.812500000000001 12.727272727272727  L 7.812500000000001 11.454545454545453  Z M 3.125 0  L 5.625 0  C 5.794270833333334 0  5.940755208333334 0.06297348484848353  6.064453125 0.18892045454545525  C 6.188151041666668 0.3148674242424223  6.25 0.4640151515151507  6.25 0.6363636363636358  L 6.25 3.181818181818182  C 6.25 3.3541666666666656  6.188151041666668 3.5033143939393927  6.064453125 3.629261363636364  C 5.940755208333334 3.7552083333333313  5.794270833333334 3.818181818181818  5.625 3.818181818181818  L 3.125 3.818181818181818  C 2.955729166666667 3.818181818181818  2.809244791666667 3.7552083333333313  2.685546875 3.629261363636364  C 2.561848958333334 3.5033143939393927  2.5 3.3541666666666656  2.5 3.181818181818182  L 2.5 0.6363636363636358  C 2.5 0.4640151515151507  2.561848958333334 0.3148674242424223  2.685546875 0.18892045454545525  C 2.809244791666667 0.06297348484848353  2.955729166666667 0  3.125 0  Z M 9.375 5.090909090909091  L 11.875 5.090909090909091  C 12.044270833333334 5.090909090909091  12.190755208333334 5.153882575757576  12.314453125 5.279829545454545  C 12.438151041666668 5.405776515151515  12.5 5.554924242424242  12.5 5.727272727272727  L 12.5 8.272727272727272  C 12.5 8.445075757575756  12.438151041666668 8.594223484848484  12.314453125 8.720170454545453  C 12.190755208333334 8.846117424242424  12.044270833333334 8.909090909090908  11.875 8.909090909090908  L 9.375 8.909090909090908  C 9.205729166666666 8.909090909090908  9.059244791666666 8.846117424242424  8.935546875 8.720170454545453  C 8.811848958333334 8.594223484848484  8.75 8.445075757575756  8.75 8.272727272727272  L 8.75 5.727272727272727  C 8.75 5.554924242424242  8.811848958333334 5.405776515151515  8.935546875 5.279829545454545  C 9.059244791666666 5.153882575757576  9.205729166666666 5.090909090909091  9.375 5.090909090909091  Z M 12.8125 6.363636363636364  L 15 6.363636363636364  L 15 7.636363636363636  L 12.8125 7.636363636363636  L 12.8125 6.363636363636364  Z M 6.5625 1.2727272727272732  L 15 1.2727272727272732  L 15 2.545454545454545  L 6.5625 2.545454545454545  L 6.5625 1.2727272727272732  Z " fill-rule="nonzero" fill="#0084cc" stroke="none" transform="matrix(1 0 0 1 20 153 )" />
  </g>
</svg>