<?xml version="1.0" encoding="utf-8"?>
<svg version="1.1" xmlns:xlink="http://www.w3.org/1999/xlink" width="18px" height="16px" xmlns="http://www.w3.org/2000/svg">
  <g transform="matrix(1 0 0 1 -756 -27 )">
    <path d="M 9 16  C 8.743743913248181 16  8.496688859537244 15.907247967619114  8.304153442382812 15.738757589270401  C 7.576995849609375 15.10348849175042  6.8759307861328125 14.506500222157667  6.2574005126953125 13.979899152745858  C 6.2574005126953125 13.979899152745858  6.254241943359375 13.977155009776009  6.254241943359375 13.977155009776009  C 4.4408111572265625 12.433162967790622  2.874847412109375 11.099783898741125  1.7852783203125 9.78629986622303  C 0.5673065185546875 8.317908963056976  0 6.925668027304223  0 5.404726786265565  C 0 3.927005797002024  0.5071563720703125 2.5637155695811753  1.427947998046875 1.5658079785956849  C 2.3597259521484375 0.5561005728398449  3.6382598876953125 0  5.0284423828125 0  C 6.067474365234375 0  7.0190277099609375 0.328199499193908  7.856597900390625 0.9754056186327308  C 8.279296908527613 1.302095839193222  8.662445101886988 1.7019174699001818  9 2.168284567625973  C 9.337692260742188 1.7019174699001818  9.720703125 1.302095839193222  10.143539428710938 0.9754056186327308  C 10.981109619140625 0.328199499193908  11.932662963867188 0  12.971694946289062 0  C 14.361740112304688 0  15.640411376953125 0.5561005728398449  16.572189331054688 1.5658079785956849  C 17.49298095703125 2.5637155695811753  18 3.927005797002024  18 5.404726786265565  C 18 6.925668027304223  17.432830810546875 8.317908963056976  16.214859008789062 9.786162659074538  C 15.125289916992188 11.099783898741125  13.559463500976562 12.43302576064213  11.746307373046875 13.976880595479024  C 11.126678466796875 14.50430487428395  10.424514770507812 15.102253627413988  9.695709228515625 15.739032003567386  C 9.503311173990369 15.907247950870193  9.256118757650256 16  9 16  Z M 5.0284423828125 1.053476486124927  C 3.9362640380859375 1.053476486124927  2.9329376220703125 1.4889719754399204  2.203033447265625 2.279833979350324  C 1.4622802734375 3.08263300517957  1.0542755126953125 4.192364422186396  1.0542755126953125 5.404726786265565  C 1.0542755126953125 6.68390903166055  1.530120849609375 7.827942235790485  2.5970306396484375 9.114122045758585  C 3.62823486328125 10.35735601824855  5.1620635986328125 11.66329365759956  6.9380035400390625 13.175453641134704  C 6.9380035400390625 13.175453641134704  6.9412994384765625 13.178197784104551  6.9412994384765625 13.178197784104551  C 7.562164306640625 13.706856927245909  8.265975952148438 14.306177751860872  8.998489379882812 14.946111892429595  C 9.735397338867188 14.30494288752444  10.4403076171875 13.70466161287003  11.062408447265625 13.175179226837718  C 12.838211059570312 11.663019243302577  14.371902465820312 10.35735601824855  15.403106689453125 9.114122045758585  C 16.469879150390625 7.827942235790485  16.945724487304688 6.68390903166055  16.945724487304688 5.404726786265565  C 16.945724487304688 4.192364422186396  16.5377197265625 3.08263300517957  15.796966552734375 2.279833979350324  C 15.06719970703125 1.4889719754399204  14.063735961914062 1.053476486124927  12.971694946289062 1.053476486124927  C 12.171615600585938 1.053476486124927  11.437042236328125 1.3075840916350805  10.788436889648438 1.8086646314272974  C 10.210418701171875 2.2554111069186704  9.807769741863012 2.8201557301135387  9.571701049804688 3.215312317771756  C 9.450302124023438 3.4185161381868934  9.236618058755994 3.5398072239563683  9 3.5398072239563683  C 8.763381941244006 3.5398072239563683  8.549697875976562 3.4185161381868934  8.428298950195312 3.215312317771756  C 8.192367570474744 2.8201557301135387  7.7897186279296875 2.2554111069186704  7.2115631103515625 1.8086646314272974  C 6.562957763671875 1.3075840916350805  5.8283843994140625 1.053476486124927  5.0284423828125 1.053476486124927  Z " fill-rule="nonzero" fill="#333333" stroke="none" transform="matrix(1 0 0 1 756 27 )" />
  </g>
</svg>