<svg width="19" height="19" viewBox="0 0 19 19" fill="none" xmlns="http://www.w3.org/2000/svg">
<path d="M16.8463 10.3438V9.84378C16.5702 9.84378 16.3463 10.0676 16.3463 10.3438H16.8463ZM17.982 9.69393L18.3337 9.33851V9.33851L17.982 9.69393ZM12.365 4.13611L12.7167 3.78069C12.5219 3.58792 12.2082 3.58792 12.0134 3.78069L12.365 4.13611ZM7.8838 10.3438H8.3838C8.3838 10.0676 8.15994 9.84378 7.8838 9.84378V10.3438ZM6.74806 9.69393L6.39638 9.33851L6.39638 9.33851L6.74806 9.69393ZM17.3463 15.1189V10.3438H16.3463V15.1189H17.3463ZM18.3337 9.33851L12.7167 3.78069L12.0134 4.49153L17.6304 10.0494L18.3337 9.33851ZM16.8463 10.8438H17.7425V9.84378H16.8463V10.8438ZM17.6304 10.0494C17.5903 10.0097 17.5916 9.95852 17.601 9.93293C17.6062 9.91872 17.618 9.89775 17.6434 9.87824C17.6719 9.85637 17.7086 9.84378 17.7425 9.84378V10.8438C18.148 10.8438 18.431 10.5726 18.5393 10.2787C18.6471 9.9862 18.6081 9.61004 18.3337 9.33851L17.6304 10.0494ZM16.3982 16.0964C16.9513 16.0964 17.3463 15.6284 17.3463 15.1189H16.3463C16.3463 15.1229 16.3451 15.1201 16.3505 15.1144C16.3532 15.1114 16.3585 15.107 16.3672 15.1031C16.3763 15.099 16.3872 15.0964 16.3982 15.0964V16.0964ZM8.3838 15.1189V10.3438H7.3838V15.1189H8.3838ZM7.09974 10.0494L12.7167 4.49153L12.0134 3.78069L6.39638 9.33851L7.09974 10.0494ZM7.8838 9.84378H6.98754V10.8438H7.8838V9.84378ZM6.39638 9.33851C6.12196 9.61004 6.08299 9.9862 6.19079 10.2787C6.29911 10.5726 6.58212 10.8438 6.98754 10.8438V9.84378C7.02151 9.84378 7.05819 9.85637 7.08668 9.87824C7.11209 9.89775 7.12387 9.91872 7.12911 9.93294C7.13853 9.95852 7.13976 10.0097 7.09974 10.0494L6.39638 9.33851ZM8.33192 15.0964C8.3429 15.0964 8.35383 15.099 8.36294 15.1031C8.37159 15.107 8.37686 15.1114 8.37964 15.1144C8.38503 15.1201 8.3838 15.1229 8.3838 15.1189H7.3838C7.3838 15.6284 7.77884 16.0964 8.33192 16.0964V15.0964ZM11.4688 16.0964H16.3982V15.0964H11.4688V16.0964ZM13.2613 15.0964H8.33192V16.0964H13.2613V15.0964Z" fill="#333333"/>
<path d="M4.19121 5.58829L7.26473 2.23535L10.3383 5.58829L13.4118 8.94123L12.2592 9.77947V15.6471H2.27025V9.36035L1.11768 8.94123L4.19121 5.58829Z" fill="white"/>
<path d="M12.575 9.59338V9.09338C12.2988 9.09338 12.075 9.31724 12.075 9.59338H12.575ZM13.873 8.8507L14.2246 8.49528L13.873 8.8507ZM7.45354 2.4989L7.80521 2.14348C7.61039 1.95071 7.29669 1.95071 7.10186 2.14348L7.45354 2.4989ZM2.33211 9.59338H2.83211C2.83211 9.31724 2.60825 9.09338 2.33211 9.09338V9.59338ZM1.03413 8.8507L0.682449 8.49528H0.682449L1.03413 8.8507ZM13.075 15.0507V9.59338H12.075V15.0507H13.075ZM14.2246 8.49528L7.80521 2.14348L7.10186 2.85432L13.5213 9.20612L14.2246 8.49528ZM12.575 10.0934H13.5993V9.09338H12.575V10.0934ZM13.5213 9.20612C13.513 9.19791 13.5058 9.18448 13.5033 9.17114C13.5012 9.16047 13.5027 9.15337 13.5045 9.14855C13.5062 9.14386 13.512 9.13139 13.5295 9.118C13.55 9.10224 13.5767 9.09338 13.5993 9.09338V10.0934C14.0275 10.0934 14.3275 9.80731 14.4428 9.49434C14.5576 9.18274 14.5158 8.78338 14.2246 8.49528L13.5213 9.20612ZM12.0628 16.0964C12.6513 16.0964 13.075 15.5978 13.075 15.0507H12.075C12.075 15.0735 12.0666 15.0878 12.0604 15.0944C12.0574 15.0976 12.0557 15.0981 12.0567 15.0977C12.0582 15.097 12.0607 15.0964 12.0628 15.0964V16.0964ZM2.83211 15.0507V9.59338H1.83211V15.0507H2.83211ZM1.3858 9.20612L7.80521 2.85432L7.10186 2.14348L0.682449 8.49528L1.3858 9.20612ZM2.33211 9.09338H1.30782V10.0934H2.33211V9.09338ZM0.682449 8.49528C0.391282 8.78338 0.349442 9.18274 0.464271 9.49434C0.579611 9.80731 0.879547 10.0934 1.30782 10.0934V9.09338C1.33036 9.09338 1.3571 9.10224 1.37762 9.118C1.39507 9.13139 1.40086 9.14386 1.40258 9.14855C1.40436 9.15337 1.40583 9.16047 1.40382 9.17114C1.40131 9.18448 1.39409 9.19791 1.3858 9.20612L0.682449 8.49528ZM2.84425 15.0964C2.84639 15.0964 2.8489 15.097 2.85035 15.0977C2.85134 15.0981 2.84972 15.0976 2.84671 15.0944C2.84051 15.0878 2.83211 15.0735 2.83211 15.0507H1.83211C1.83211 15.5978 2.25582 16.0964 2.84425 16.0964V15.0964ZM6.42925 16.0964H12.0628V15.0964H6.42925V16.0964ZM8.47782 15.0964H2.84425V16.0964H8.47782V15.0964Z" fill="#333333"/>
</svg>
