<?xml version="1.0" encoding="utf-8"?>
<svg version="1.1" xmlns:xlink="http://www.w3.org/1999/xlink" width="15px" height="18px" xmlns="http://www.w3.org/2000/svg">
  <g transform="matrix(1 0 0 1 -648 -25 )">
    <path d="M 14.69031845608972 14.324519634246826  C 14.634595732667135 14.290171978063881  14.21521352979824 14.01120737940073  13.795275236451731 13.16728162765503  C 13.024080129339149 11.617523789405823  12.862205846317504 9.43439045548439  12.862205846317504 7.875878691673279  C 12.862205846317504 7.869093535293359  12.862058252265514 7.862379086553119  12.861799076798913 7.855629086494446  C 12.85339438699777 5.795859530568123  11.554443680161345 4.020257815718651  9.695637344183734 3.2235820591449738  C 9.695637344183734 3.2235820591449738  9.695637344183734 2.005171850323677  9.695637344183734 2.005171850323677  C 9.695637344183734 0.8995077610015869  8.749869612478966 0  7.58735657890564 0  C 7.58735657890564 0  7.412634946729388 0  7.412634946729388 0  C 6.250121913156063 0  5.304353616493629 0.8995077610015869  5.304353616493629 2.005171850323677  C 5.304353616493629 2.005171850323677  5.304353616493629 3.2235117852687836  5.304353616493629 3.2235117852687836  C 3.439326955388155 4.022753946483135  2.137784690641612 5.807425618171692  2.137784690641612 7.875878691673279  C 2.137784690641612 9.43439045548439  1.9759112550564655 11.617488652467728  1.2047161479438817 13.16728162765503  C 0.7848148946342656 14.011172242462635  0.36543200763694705 14.290136822266504  0.3096722574186662 14.324519634246826  C 0.07485929164402756 14.42770322598517  -0.04091817554068897 14.666062558069825  0.013101394726994 14.907621145248413  C 0.0676393180657793 15.151570368558168  0.3077840276637923 15.319757580757141  0.5700325734815953 15.319757580757141  C 0.5700325734815953 15.319757580757141  4.640827223065097 15.319757580757141  4.640827223065097 15.319757580757141  C 4.663560614120705 16.801277071237564  5.937000977602743 18  7.500014123941618 18  C 9.063027270280493 18  10.336467068804867 16.801277071237564  10.359200459860473 15.319757580757141  C 10.359200459860473 15.319757580757141  14.429996133429743 15.319757580757141  14.429996133429743 15.319757580757141  C 14.692207639210654 15.319757580757141  14.932388956299846 15.151570368558168  14.986926879638633 14.907621145248413  C 15.040872400728652 14.666062558069825  14.925131421864359 14.427668072283268  14.69031845608972 14.324519634246826  Z M 6.415142869130721 2.005171850323677  C 6.415142869130721 1.4820117093622684  6.862627862631071 1.0564101487398148  7.412672233935259 1.0564101487398148  C 7.412672233935259 1.0564101487398148  7.587392736196181 1.0564101487398148  7.587392736196181 1.0564101487398148  C 8.13743710750037 1.0564101487398148  8.584922665958384 1.4820117093622684  8.584922665958384 2.005171850323677  C 8.584922665958384 2.005171850323677  8.584922665958384 2.881160259246826  8.584922665958384 2.881160259246826  C 8.234369330414436 2.812359477393329  7.87148667658456 2.776148557662964  7.499866105033464 2.776148557662964  C 7.128356582973335 2.776148557662964  6.7655848020851606 2.812324109952897  6.415179591378927 2.8810545802116394  C 6.415179591378927 2.8810545802116394  6.415179591378927 2.005171850323677  6.415179591378927 2.005171850323677  Z M 7.500014123941618 16.943589448928833  C 6.5494696045620255 16.943589448928833  5.774127454400902 16.218773424625397  5.751579188496317 15.319792985916138  C 5.751579188496317 15.319792985916138  9.248411207223382 15.319792985916138  9.248411207223382 15.319792985916138  C 9.225899968114495 16.2187382876873  8.450558643321209 16.943589448928833  7.500014123941618 16.943589448928833  Z M 13.164293229298764 14.263312697410583  C 13.164293229298764 14.263312697410583  9.73632785502674 14.263312697410583  9.73632785502674 14.263312697410583  C 9.736216779829233 14.263312697410583  1.83573431238739 14.263312697410583  1.83573431238739 14.263312697410583  C 1.9318143584564862 14.121140817180276  2.029597557680483 13.960160214453936  2.1267883546557145 13.778226613998413  C 2.871140275146435 12.38452734053135  3.2485738020392865 10.398691266775131  3.2485738020392865 7.875878691673279  C 3.2485738020392865 5.6463747918605804  5.155697859812309 3.832558572292328  7.499828817827594 3.832558572292328  C 9.843959775842878 3.832558572292328  11.751084398573564 5.646374925971031  11.751084398573564 7.877636611461639  C 11.751084398573564 7.884140517795458  11.751194705419682 7.890609585272614  11.751453880886283 7.897078335285187  C 11.753564309621707 10.409765839576721  12.130960943648033 12.388464957475662  12.873239469509272 13.778226613998413  C 12.970430266484504 13.960195368155837  13.068250205611633 14.121140817180276  13.164293229298764 14.263312697410583  Z " fill-rule="nonzero" fill="#333333" stroke="none" transform="matrix(1 0 0 1 648 25 )" />
  </g>
</svg>