<svg width="20" height="20" viewBox="0 0 20 20" fill="none" xmlns="http://www.w3.org/2000/svg"><rect width="20" height="20" rx="3" fill="#0084CC"></rect><path d="M10.0211 9.83324C9.65734 9.83324 9.36143 9.53732 9.36143 9.17359C9.36143 8.90789 9.51952 8.66927 9.76421 8.56562C10.0596 8.44055 10.4131 8.54728 10.7343 8.85846C10.9959 9.11194 11.4135 9.10534 11.667 8.84373C11.9205 8.58207 11.9139 8.16447 11.6523 7.91099C11.3545 7.62246 11.0234 7.41854 10.6807 7.30346V6.53501C10.6807 6.17071 10.3854 5.87537 10.0211 5.87537C9.65677 5.87537 9.36143 6.17071 9.36143 6.53501V7.30772C9.324 7.32105 9.28671 7.33512 9.24973 7.35077C8.51616 7.66147 8.04214 8.37696 8.04214 9.17359C8.04214 10.2648 8.92989 11.1525 10.0211 11.1525C10.3848 11.1525 10.6807 11.4484 10.6807 11.8122C10.6807 12.0886 10.5063 12.3379 10.2468 12.4324C9.90801 12.5557 9.51359 12.3884 9.16477 11.973C8.93046 11.6941 8.5144 11.6579 8.23542 11.8922C7.95643 12.1265 7.92024 12.5426 8.15455 12.8215C8.51115 13.2461 8.92624 13.5373 9.36147 13.6838V14.4508C9.36147 14.8151 9.65682 15.1104 10.0211 15.1104C10.3854 15.1104 10.6808 14.8151 10.6808 14.4508V13.678C10.6867 13.6759 10.6925 13.6741 10.6984 13.672C11.4769 13.3884 12 12.641 12 11.8122C12 10.721 11.1123 9.83324 10.0211 9.83324Z" fill="white"></path><path d="M15.4743 10.5833V9.98333C15.143 9.98333 14.8743 10.252 14.8743 10.5833H15.4743ZM16.8617 9.78947L17.2838 9.36297L17.2838 9.36297L16.8617 9.78947ZM10 3L10.422 2.5735C10.1882 2.34217 9.81178 2.34217 9.57799 2.5735L10 3ZM4.52567 10.5833H5.12567C5.12567 10.252 4.85704 9.98333 4.52567 9.98333V10.5833ZM3.13825 9.78947L2.71624 9.36297L2.71624 9.36297L3.13825 9.78947ZM16.0743 16.4167V10.5833H14.8743V16.4167H16.0743ZM17.2838 9.36297L10.422 2.5735L9.57799 3.4265L16.4397 10.216L17.2838 9.36297ZM15.4743 11.1833H16.5692V9.98333H15.4743V11.1833ZM16.4397 10.216C16.3942 10.171 16.3961 10.113 16.4064 10.0852C16.4122 10.0696 16.4254 10.0457 16.4547 10.0232C16.4876 9.99788 16.5302 9.98333 16.5692 9.98333V11.1833C17.0592 11.1833 17.4013 10.8557 17.5324 10.5001C17.6628 10.1462 17.6156 9.69132 17.2838 9.36297L16.4397 10.216ZM14.9269 17.6C15.5959 17.6 16.0743 17.0337 16.0743 16.4167H14.8743C14.8743 16.4243 14.8718 16.4236 14.8765 16.4186C14.8789 16.4159 14.8842 16.4113 14.8934 16.4071C14.9032 16.4027 14.9151 16.4 14.9269 16.4V17.6ZM5.12567 16.4167V10.5833H3.92567V16.4167H5.12567ZM3.56027 10.216L10.422 3.4265L9.57799 2.5735L2.71624 9.36297L3.56027 10.216ZM4.52567 9.98333H3.43081V11.1833H4.52567V9.98333ZM2.71624 9.36297C2.3844 9.69132 2.3372 10.1462 2.46763 10.5001C2.59867 10.8557 2.94084 11.1833 3.43081 11.1833V9.98333C3.46984 9.98333 3.51235 9.99788 3.54533 10.0232C3.57462 10.0457 3.58785 10.0696 3.5936 10.0852C3.60385 10.113 3.60576 10.171 3.56027 10.216L2.71624 9.36297ZM5.07311 16.4C5.08494 16.4 5.09679 16.4027 5.10656 16.4071C5.11578 16.4113 5.12107 16.4159 5.12353 16.4186C5.12824 16.4236 5.12567 16.4243 5.12567 16.4167H3.92567C3.92567 17.0337 4.40406 17.6 5.07311 17.6V16.4ZM8.90513 17.6H14.9269V16.4H8.90513V17.6ZM11.0949 16.4H5.07311V17.6H11.0949V16.4Z" fill="white"></path></svg>