<svg width="21" height="20" viewBox="0 0 21 20" fill="none" xmlns="http://www.w3.org/2000/svg">
<g clip-path="url(#clip0_9045_178210)">
<path d="M16.8429 10.7292V10.1292C16.5115 10.1292 16.2429 10.3978 16.2429 10.7292H16.8429ZM18.5772 9.73684L18.9992 9.31034L18.5772 9.73684ZM10 1.25L10.422 0.823496C10.1882 0.592168 9.81178 0.592168 9.57799 0.823496L10 1.25ZM3.15709 10.7292H3.75709C3.75709 10.3978 3.48846 10.1292 3.15709 10.1292V10.7292ZM1.42282 9.73684L1.0008 9.31034H1.0008L1.42282 9.73684ZM17.4429 18.0208V10.7292H16.2429V18.0208H17.4429ZM18.9992 9.31034L10.422 0.823496L9.57799 1.6765L18.1552 10.1633L18.9992 9.31034ZM16.8429 11.3292H18.2115V10.1292H16.8429V11.3292ZM18.1552 10.1633C18.1558 10.164 18.1544 10.1626 18.1527 10.1594C18.1511 10.1564 18.1504 10.1538 18.1501 10.1524C18.1498 10.1508 18.1504 10.1538 18.1487 10.1583C18.147 10.1631 18.1474 10.1574 18.1597 10.148C18.1662 10.1429 18.1752 10.1377 18.1861 10.134C18.1972 10.1301 18.2064 10.1292 18.2115 10.1292V11.3292C18.7503 11.3292 19.1287 10.9696 19.2747 10.5733C19.4202 10.1786 19.3668 9.6741 18.9992 9.31034L18.1552 10.1633ZM16.1586 19.35C16.9032 19.35 17.4429 18.7184 17.4429 18.0208H16.2429C16.2429 18.0688 16.225 18.1045 16.205 18.1258C16.1855 18.1466 16.1691 18.15 16.1586 18.15V19.35ZM3.75709 18.0208V10.7292H2.55709V18.0208H3.75709ZM1.84483 10.1633L10.422 1.6765L9.57799 0.823496L1.0008 9.31034L1.84483 10.1633ZM3.15709 10.1292H1.78851V11.3292H3.15709V10.1292ZM1.0008 9.31034C0.63317 9.6741 0.579835 10.1786 0.725282 10.5733C0.871342 10.9696 1.2497 11.3292 1.78851 11.3292V10.1292C1.79359 10.1292 1.80278 10.1301 1.81391 10.134C1.82477 10.1377 1.83375 10.1429 1.84033 10.148C1.85259 10.1574 1.85301 10.1631 1.85126 10.1583C1.84957 10.1538 1.8502 10.1508 1.84989 10.1524C1.84963 10.1538 1.8489 10.1564 1.84733 10.1594C1.84564 10.1626 1.84421 10.164 1.84483 10.1633L1.0008 9.31034ZM3.84138 18.15C3.8309 18.15 3.81447 18.1466 3.79503 18.1258C3.77498 18.1045 3.75709 18.0688 3.75709 18.0208H2.55709C2.55709 18.7184 3.09676 19.35 3.84138 19.35V18.15ZM8.63142 19.35H16.1586V18.15H8.63142V19.35ZM11.3686 18.15H3.84138V19.35H11.3686V18.15Z" fill="#0084CC"/>
<path d="M12.8954 8.89977C12.1944 8.89977 11.624 8.23436 11.624 7.41647C11.624 6.819 11.9287 6.28244 12.4003 6.04937C12.9696 5.76814 13.6509 6.00813 14.27 6.70785C14.7743 7.27783 15.5792 7.263 16.0678 6.67473C16.5564 6.08635 16.5436 5.14733 16.0394 4.57735C15.4654 3.92856 14.8273 3.47002 14.1668 3.21123V1.48329C14.1668 0.66412 13.5975 0 12.8954 0C12.1932 0 11.624 0.66412 11.624 1.48329V3.22083C11.5519 3.25079 11.48 3.28243 11.4087 3.31763C9.99485 4.01627 9.08122 5.62515 9.08122 7.41647C9.08122 9.87014 10.7923 11.8664 12.8954 11.8664C13.5964 11.8664 14.1668 12.5318 14.1668 13.3497C14.1668 13.9712 13.8307 14.5317 13.3305 14.7442C12.6775 15.0216 11.9173 14.6454 11.245 13.7114C10.7934 13.084 9.99146 13.0027 9.45374 13.5295C8.91603 14.0564 8.84627 14.9921 9.29787 15.6193C9.98518 16.574 10.7852 17.2288 11.6241 17.5583V19.2828C11.6241 20.102 12.1933 20.7661 12.8955 20.7661C13.5976 20.7661 14.1669 20.102 14.1669 19.2828V17.5451C14.1782 17.5405 14.1896 17.5364 14.2009 17.5316C15.7014 16.894 16.7096 15.2134 16.7096 13.3497C16.7096 10.896 14.9985 8.89977 12.8954 8.89977Z" fill="white"/>
<rect x="13" width="12" height="20" fill="white"/>
<g clip-path="url(#clip1_9045_178210)">
<path d="M17.5425 11.5233C17.4749 11.2944 17.3928 11.0951 17.2965 10.9259C17.2002 10.7565 17.0623 10.5913 16.8825 10.4297C16.7029 10.2681 16.5413 10.138 16.3981 10.0391C16.2549 9.94016 16.0582 9.8295 15.8082 9.70701C15.5583 9.58456 15.3604 9.49343 15.2147 9.43351C15.0688 9.37366 14.8577 9.29162 14.5816 9.18745C14.3368 9.09375 14.1546 9.02211 14.0347 8.97266C13.9149 8.92316 13.7574 8.85289 13.5621 8.76168C13.3668 8.67061 13.221 8.58983 13.1246 8.51956C13.0282 8.44929 12.9254 8.36337 12.816 8.26182C12.7066 8.16027 12.6298 8.05218 12.5855 7.9376C12.5413 7.823 12.5191 7.69797 12.5191 7.56255C12.5191 7.20845 12.6753 6.91929 12.9878 6.6954C13.3004 6.4715 13.7041 6.3595 14.1989 6.3595C14.4175 6.3595 14.6404 6.38941 14.8669 6.44936C15.0933 6.50932 15.2873 6.57685 15.4488 6.65244C15.6104 6.72802 15.7627 6.81137 15.906 6.90246C16.0492 6.99364 16.1507 7.0626 16.2107 7.10948C16.2706 7.15638 16.3086 7.1876 16.324 7.20325C16.3918 7.25533 16.462 7.27352 16.5349 7.25795C16.613 7.25276 16.6729 7.21102 16.7147 7.13298L17.3476 5.99232C17.4101 5.8882 17.3972 5.78923 17.3086 5.69542C17.2773 5.66417 17.2384 5.62775 17.1912 5.58604C17.1444 5.54434 17.0428 5.46884 16.8864 5.35941C16.7302 5.25006 16.5648 5.1524 16.3905 5.06645C16.2159 4.98058 15.9893 4.89329 15.7106 4.80479C15.4321 4.71616 15.1443 4.65631 14.8473 4.62509V3.25C14.8473 3.17713 14.8239 3.1172 14.7772 3.0703C14.7303 3.02351 14.6704 3 14.5973 3H13.5426C13.4749 3 13.4163 3.02471 13.3668 3.07421C13.3173 3.12371 13.2926 3.18227 13.2926 3.25V4.65628C12.4748 4.81248 11.8107 5.16146 11.3003 5.70314C10.7899 6.24484 10.5347 6.87496 10.5347 7.5938C10.5347 7.80732 10.5569 8.01045 10.6012 8.20307C10.6454 8.39585 10.7001 8.56904 10.7652 8.72266C10.8303 8.87639 10.9228 9.02739 11.0426 9.17587C11.1623 9.32429 11.2757 9.45192 11.3824 9.55864C11.4892 9.66534 11.6285 9.77605 11.8004 9.8906C11.9723 10.0053 12.1194 10.0978 12.2419 10.168C12.3643 10.2381 12.5271 10.3191 12.7301 10.41C12.9333 10.5012 13.0935 10.5702 13.2107 10.6172C13.3279 10.664 13.488 10.7292 13.6912 10.8123C13.9725 10.9217 14.1808 11.0064 14.3162 11.0663C14.4517 11.1262 14.6236 11.2095 14.832 11.3163C15.0403 11.423 15.1926 11.5207 15.289 11.6092C15.3854 11.6978 15.4726 11.8072 15.5507 11.9374C15.6289 12.0675 15.6681 12.2056 15.6681 12.3515C15.6681 12.763 15.5079 13.0806 15.1875 13.3044C14.8672 13.5284 14.496 13.6404 14.0742 13.6404C13.8817 13.6404 13.6888 13.6197 13.4961 13.578C12.819 13.4424 12.1862 13.1169 11.5977 12.6013L11.5821 12.5857C11.5352 12.5286 11.4726 12.5051 11.3946 12.5156C11.3112 12.526 11.2513 12.5572 11.2149 12.6094L10.4101 13.664C10.332 13.7682 10.3373 13.8749 10.4258 13.9843C10.4519 14.0156 10.4974 14.0626 10.5625 14.125C10.6278 14.1876 10.7489 14.2851 10.9259 14.4182C11.1029 14.5511 11.2956 14.6759 11.504 14.7932C11.7124 14.9104 11.9767 15.0262 12.297 15.1408C12.6174 15.2553 12.9494 15.336 13.2932 15.3828V16.75C13.2932 16.8178 13.3179 16.8764 13.3674 16.9259C13.4169 16.9755 13.4754 17.0001 13.5431 17.0001H14.5979C14.671 17.0001 14.7309 16.9767 14.7777 16.9299C14.8245 16.8831 14.8478 16.8231 14.8478 16.7501V15.3829C15.6761 15.2475 16.3493 14.892 16.8675 14.3164C17.3857 13.7409 17.6449 13.0546 17.6449 12.2578C17.6446 11.9974 17.6109 11.7526 17.5425 11.5233Z" fill="#0084CC"/>
</g>
</g>
<defs>
<clipPath id="clip0_9045_178210">
<rect width="21" height="20" fill="white"/>
</clipPath>
<clipPath id="clip1_9045_178210">
<rect width="14" height="14" fill="white" transform="translate(7 3)"/>
</clipPath>
</defs>
</svg>
