<svg width="20" height="20" viewBox="0 0 20 20" fill="none" xmlns="http://www.w3.org/2000/svg"><rect width="20" height="20" rx="3" fill="#0084CC"></rect><path d="M3 8.5C3 7.5 3.02169 7 3.76084 7C4.5 7 4.49996 8 4.49996 8.5C4.49996 9 4.39129 10.3696 6.91303 11.6304C9.22047 12.7842 11.672 13.2358 13.1388 13.4114C14.0189 13.5168 14.9252 13.7161 15.4851 14.4034C15.8018 14.7921 16.1309 15.3275 16.3696 16.0435C17 17.9348 17 18.5652 17 18.5652H5.02172C5.02172 18.5652 5.65216 15.413 5.02172 14.1522C4.39129 12.8913 3.26083 11.2391 3.13042 10.3696C3.00001 9.5 3 9.5 3 8.5Z" fill="white"></path><path d="M3.04993 3.66087C3.188 3.66087 3.29993 3.77182 3.29993 3.90869V3.57826C3.29993 3.44139 3.41186 3.33044 3.54993 3.33044C3.688 3.33044 3.79993 3.44139 3.79993 3.57826V3.24783C3.79993 3.11096 3.91186 3 4.04993 3C4.188 3 4.29993 3.11096 4.29993 3.24783V3.57826C4.29993 3.44139 4.41186 3.33044 4.54993 3.33044C4.688 3.33044 4.79993 3.44139 4.79993 3.57826V5.31305L5.37859 5.02623C5.43644 4.99755 5.50024 4.98262 5.56493 4.98261C5.69472 4.98261 5.79993 5.08691 5.79993 5.21557V5.21656C5.80006 5.27852 5.77529 5.33797 5.73109 5.38177L4.65343 6.45007C4.427 6.67431 4.11998 6.80018 3.79993 6.8C3.24765 6.8 2.79993 6.35617 2.79993 5.80869V3.90869C2.79993 3.77182 2.91185 3.66087 3.04993 3.66087Z" fill="white"></path><path d="M7.99988 5L8.99988 4.5L10.4999 4L13.4999 5.5V5.5C13.7985 5.7986 13.8725 6.25476 13.6837 6.63246L13.4999 7V8.5C13.4999 8.77614 13.276 9 12.9999 9V9L12.4999 10V10.5L11.4999 11.5L9.99988 12L8.99988 11.5L7.99988 10.5L6.99988 7.5L7.99988 5Z" fill="white"></path><path d="M9.13166 11.7358C8.26644 11.3148 7.65914 10.43 7.62212 9.39974C7.26606 9.31262 7.00077 8.9883 7.00077 8.60242V7.55666C6.98994 7.04478 7.06462 5.76274 7.98316 4.86169C9.11736 3.74903 10.9362 3.81971 12.2737 4.47493C12.4041 4.53885 12.4239 4.71809 12.3156 4.81091C12.9932 4.97909 13.5774 5.40297 13.9528 6.0096C13.9721 6.04085 14.0076 6.08989 13.9984 6.16813C13.9926 6.21683 13.9784 6.25803 13.9415 6.2961C13.6999 6.54544 13.5669 6.87584 13.5669 7.22646V8.60247C13.5669 8.71388 13.4781 8.8042 13.3687 8.8042C13.2592 8.8042 13.1704 8.71388 13.1704 8.60247V7.22646C13.1704 6.82208 13.3062 6.43824 13.5555 6.12991C13.1755 5.57678 12.5826 5.22104 11.912 5.14796L11.5636 5.10999C11.3599 5.0878 11.3199 4.80218 11.5092 4.72288L11.6677 4.65649C9.60402 3.92435 7.39719 4.73783 7.39719 7.55446V8.60242C7.39719 8.76249 7.48777 8.90161 7.62019 8.97148V7.66372C7.62019 6.88511 8.24265 6.25165 9.00774 6.25165H11.5351C12.3002 6.25165 12.9226 6.88506 12.9226 7.66365V9.31534C12.9226 11.0697 11.238 12.4022 9.52386 11.8887C9.35908 11.8393 9.13166 11.7358 9.13166 11.7358ZM10.2714 11.5946C11.5147 11.5946 12.5262 10.5653 12.5262 9.30001V7.66365C12.5262 7.10754 12.0816 6.6551 11.5351 6.6551H9.00774C8.46124 6.6551 8.01663 7.10757 8.01663 7.66372V9.30001C8.01663 10.5653 9.02811 11.5946 10.2714 11.5946Z" fill="#0084CC"></path></svg>