<svg width="20" height="15" viewBox="0 0 20 15" fill="none" xmlns="http://www.w3.org/2000/svg">
<path d="M15.5173 14.1333H19.3103C19.6912 14.1333 20 13.8355 20 13.4683V1.49783C20 1.13042 19.6912 0.832764 19.3103 0.832764H0.689697C0.308685 0.832764 0 1.13057 0 1.49783V13.4683C0 13.8355 0.308685 14.1332 0.689697 14.1332H15.5173V14.1333Z" fill="#C03A2B"/>
<path d="M3.10349 0.832764V5.15539H0V9.81056H3.10349V14.1333H7.93106V9.81056H20V5.15539H7.93106V0.832764L3.10349 0.832764Z" fill="white"/>
<path d="M4.48273 14.1333V8.48057H0V6.48552H4.48273V0.832764H6.55167V6.48552H20V8.48057H6.55167V14.1333H4.48273Z" fill="#285680"/>
</svg>
