<svg width="20" height="20" viewBox="0 0 20 20" fill="none" xmlns="http://www.w3.org/2000/svg"><rect width="20" height="20" rx="3" fill="#009A34"></rect><path d="M9.99995 11.668C9.77379 11.668 9.5898 11.484 9.5898 11.2578C9.5898 11.0926 9.6881 10.9442 9.84024 10.8798C10.0239 10.802 10.2437 10.8684 10.4434 11.0619C10.6061 11.2195 10.8658 11.2154 11.0234 11.0527C11.181 10.89 11.1769 10.6304 11.0142 10.4727C10.829 10.2933 10.6232 10.1666 10.4101 10.095V9.61719C10.4101 9.39067 10.2265 9.20703 9.99995 9.20703C9.77344 9.20703 9.5898 9.39067 9.5898 9.61719V10.0976C9.56653 10.1059 9.54334 10.1147 9.52035 10.1244C9.06423 10.3176 8.76949 10.7625 8.76949 11.2578C8.76949 11.9363 9.32148 12.4883 9.99995 12.4883C10.2261 12.4883 10.4101 12.6723 10.4101 12.8984C10.4101 13.0703 10.3017 13.2253 10.1403 13.2841C9.92965 13.3608 9.68441 13.2567 9.46752 12.9985C9.32183 12.825 9.06313 12.8025 8.88966 12.9482C8.7162 13.0939 8.69369 13.3526 8.83938 13.526C9.06111 13.79 9.31921 13.9711 9.58983 14.0622V14.5391C9.58983 14.7656 9.77347 14.9492 9.99998 14.9492C10.2265 14.9492 10.4101 14.7656 10.4101 14.5391V14.0586C10.4138 14.0573 10.4175 14.0561 10.4211 14.0548C10.9052 13.8785 11.2304 13.4138 11.2304 12.8984C11.2304 12.22 10.6784 11.668 9.99995 11.668Z" fill="white"></path><path d="M13.7986 9.15943C13.3111 8.5597 12.7538 8.08189 12.1421 7.73829C12.2423 7.61975 12.3213 7.48077 12.3724 7.32586C12.5727 6.71585 12.2801 5.99124 11.5332 5.75518L12.5802 3.92958C12.7123 3.69918 12.5936 3.40573 12.3389 3.33168C11.5819 3.11159 10.795 3 10 3C9.20495 3 8.41805 3.11159 7.66107 3.33168C7.40606 3.40581 7.28786 3.69945 7.41979 3.92958L8.46675 5.75521C7.72287 5.99007 7.42657 6.71361 7.62774 7.32619C7.67862 7.48068 7.75765 7.61959 7.85814 7.73818C7.24632 8.08178 6.689 8.55964 6.20146 9.15943C5.2269 10.3584 4.66797 11.8707 4.66797 13.3086C4.66797 16.2916 7.04816 17 10 17C12.9539 17 15.332 16.2903 15.332 13.3086C15.332 11.8707 14.7731 10.3584 13.7986 9.15943ZM8.40028 3.99034C8.92356 3.87738 9.45963 3.82031 10 3.82031C10.5404 3.82031 11.0764 3.87738 11.5997 3.99034L10.6965 5.56539C10.2338 5.5008 9.76629 5.50083 9.30355 5.56542L8.40028 3.99034ZM8.66825 6.55184C9.37413 6.3203 10.1126 6.27641 10.8306 6.41994C10.8314 6.4201 10.8323 6.42027 10.8332 6.42043C11.0005 6.45401 11.1667 6.4977 11.3312 6.55165C11.5461 6.6225 11.6636 6.855 11.5931 7.06957C11.5419 7.22496 11.4067 7.33199 11.2476 7.34932C10.8387 7.22127 10.4216 7.15625 10 7.15625C9.57929 7.15625 9.16298 7.221 8.75482 7.34853C8.5933 7.33191 8.45776 7.22412 8.40698 7.06995C8.33641 6.855 8.45388 6.62247 8.66825 6.55184ZM10 16.1852C6.79542 16.1852 5.48828 15.3479 5.48828 13.3086C5.48828 12.0742 5.99286 10.7166 6.83797 9.67685C7.72924 8.58039 8.85219 7.97656 10 7.97656C11.2634 7.97656 12.3685 8.70068 13.162 9.67685C14.0071 10.7166 14.5117 12.0742 14.5117 13.3086C14.5117 15.3479 13.2046 16.1852 10 16.1852Z" fill="white"></path></svg>