<svg width="36" height="35" viewBox="0 0 36 35" fill="none" xmlns="http://www.w3.org/2000/svg">
<ellipse cx="17.8559" cy="17.5" rx="17.8559" ry="17.5" fill="#0084CC"/>
<path d="M7.452 24.934C8.266 25.044 9.52 25.154 11.258 25.154C14.162 25.154 16.56 24.538 18.122 23.24C19.53 22.03 20.564 20.072 20.564 17.234C20.564 14.616 19.596 12.79 18.056 11.646C16.648 10.59 14.8 10.062 11.962 10.062C10.29 10.062 8.684 10.194 7.452 10.392V24.934ZM10.796 12.768C11.082 12.702 11.588 12.636 12.314 12.636C15.218 12.636 17.022 14.264 17.022 17.344C17.022 20.886 15.02 22.558 11.962 22.536C11.566 22.536 11.082 22.536 10.796 22.47V12.768Z" fill="white"/>
<path d="M28.1358 21.964C27.4538 22.25 26.3538 22.448 25.3198 22.448C22.3498 22.448 20.5898 20.578 20.5898 17.608C20.5898 14.308 22.6578 12.702 25.2978 12.702C26.5078 12.702 27.4538 12.966 28.1138 13.252L28.8178 10.612C28.2238 10.282 26.9038 9.952 25.1658 9.952C20.6778 9.952 17.0698 12.746 17.0698 17.806C17.0698 22.03 19.7098 25.242 24.8358 25.242C26.6178 25.242 28.0258 24.89 28.6198 24.604L28.1358 21.964Z" fill="white"/>
</svg>
