<?xml version="1.0" encoding="utf-8"?>
<svg version="1.1" xmlns:xlink="http://www.w3.org/1999/xlink" width="17px" height="17px" xmlns="http://www.w3.org/2000/svg">
  <g transform="matrix(1 0 0 1 -15 -70 )">
    <path d="M 8.134183510638298 2.053593971631205  C 6.637886613475178 3.4533676418439683  6.174705939716311 5.54464193262411  6.76487118794326 7.376387411347519  L 1.0356149822695038 12.732351950354609  C 1.0348849844858137 12.733081948138295  1.0339724989361692 12.733811945921985  1.033242501152479 12.734359455939718  L 1.0325125033687925 12.735089453723404  C 1.0301400222517714 12.737461934840425  1.0283150044326206 12.740199671808508  1.025942756914894 12.742754313652483  C 1.0042254980496423 12.764106690425532  0.9834202108156003 12.786736855319152  0.9653517728723386 12.811923063652486  C 0.9567744741134732 12.823603028191492  0.9507518171985812 12.836742988297871  0.9436345140070905 12.849335391666667  C 0.9335972196808484 12.865942899645393  0.9228296939716287 12.881820176241135  0.9149821593971605 12.899521863297874  C 0.9038497515957413 12.923794231205676  0.8963670991134745 12.949343920035464  0.8890671212765948 12.97489501046099  C 0.8874246379432602 12.982194988297874  0.8839569031914891 12.988034970567377  0.8821320255319147 12.995699830496452  L 0.8814020277482264 12.997524848315603  L 0.8814020277482264 12.998619821631205  L 0.24830122987588688 15.692113084042557  C 0.24592874875886395 15.702150378368795  0.2462937710106381 15.712188139893623  0.2444687531914873 15.722225434219862  C 0.24136627429077961 15.739928055673765  0.23899365301418385 15.757082653191492  0.2375336574468072 15.774785274645392  C 0.23607366187943235 15.793400334929085  0.23607366187943235 15.8111024891844  0.23680365966312067 15.829718483865253  C 0.23716863519503484 15.839390896099296  0.23570863962765998 15.849063308333335  0.23680365966312067 15.85910106985816  C 0.2375336574468072 15.865305934219862  0.239541116312056 15.870781034397165  0.24027116081560074 15.877168573404258  C 0.24264364193262367 15.895783633687952  0.24647602517730505 15.913851137234044  0.2510386865248222 15.931737367730502  C 0.2548712099290782 15.947614644326244  0.25833866436170183 15.963127506028371  0.2638137645390053 15.978092343794334  C 0.2692888647163105 15.99433496968086  0.27622349326241213 16.009482482092206  0.28315858900709046 16.02481220195036  C 0.29045856684397187 16.040324596453907  0.2973936625886502 16.055654783510644  0.3056060792553197 16.07043694663121  C 0.31381849592198563 16.08430713812057  0.3233087007092177 16.097446631028372  0.33261576365248224 16.110221709042552  C 0.3422881758865248 16.124091433333334  0.35232593741134544 16.138144299468088  0.36345834521276466 16.15110158492908  C 0.3742258709219861 16.163146431560282  0.3859058354609939 16.1742788393617  0.39795068209219764 16.185958803900707  C 0.40999552872340317 16.197456093794326  0.42185816790780173 16.208771176241136  0.43499812801418436 16.219173819858156  C 0.4481380881205652 16.229211114184398  0.4620078124113487 16.23778888014185  0.4758780039007089 16.246548853546106  C 0.4906606342198572 16.255856383687945  0.5052605898936147 16.265528795921988  0.520772984397162 16.273193655851067  C 0.5342778265957442 16.28012875159575  0.5486955748226929 16.285603384574472  0.5629301812056724 16.29144336684397  C 0.5809976847517717 16.298743344680855  0.5988825136524802 16.304948209042553  0.6174989755319142 16.310058427127665  C 0.623338957801419 16.311700957180857  0.6282665012411357 16.314620948315607  0.6341064835106387 16.315898409397168  C 0.6414064613475166 16.31754093945036  0.6483415570921984 16.31699342943263  0.6552761856382983 16.31827089051419  C 0.683198776063831 16.3237459906915  0.7113026395390065 16.326301099734046  0.7403203434397163 16.326848189273054  C 0.7541905349290783 16.327213211524832  0.7673304950354591 16.32794320930852  0.7808353372340431 16.327213211524832  C 0.7877704329787232 16.326848189273054  0.7947055287234033 16.32830818484043  0.8016401572695031 16.327213211524832  L 3.702849909042552 16.05510741365249  C 3.7066823857269497 16.054742438120577  3.7097850047872356 16.05273493253547  3.7132525526595757 16.052004934751782  C 3.7627101945035477 16.04652983457447  3.8110745916666673 16.03375522375887  3.8574253629432604 16.014045050000007  C 3.8663680109929075 16.00984755106384  3.8747626351063786 16.005832633333338  3.8837052831560257 16.001269971985817  C 3.9273224755319127 15.979552713120569  3.9698473576241113 15.953274661702132  4.007438155496452 15.91823476808511  L 4.869364035283688 15.1115872638298  C 4.897286625709217 15.085672225709228  4.920830631028366 15.057018469503557  4.941634983865246 15.027271935815612  C 4.947474966134749 15.019059519148946  4.951307396099288 15.009569314361709  4.956417614184396 15.001356897695043  C 4.970652687765956 14.978544525354614  4.98342729858156 14.955001921631208  4.993100178014181 14.930912695567383  C 4.998575278191488 14.918502966843977  5.001677476773047 14.905727888829798  5.005875256028368 14.892952810815611  C 5.0131752338652475 14.870870202659582  5.0193800982269465 14.848423179609934  5.023577877482268 14.825610807269513  C 5.0263153808510665 14.811375733687953  5.028140351950352 14.79732333475178  5.029417859751774 14.782358496985825  C 5.0314253653368795 14.75845101117022  5.031790340868795 14.733994099822706  5.030877855319147 14.709723133510646  C 5.030877855319147 14.70151071684398  5.032337850886524 14.692385861347528  5.031607853102834 14.68380809539008  L 4.8854260889184395 13.167234779787243  L 6.258569439982271 13.494638201773057  C 6.258934415514183 13.494638201773057  6.259299437765961 13.494638201773057  6.260029435549647 13.495003224024831  C 6.298719084485818 13.503580522783693  6.338504781294326 13.507412952748233  6.378286740514184 13.507778302039014  C 6.39033158714539 13.507413326507098  6.40219422632979 13.506135818705683  6.413874190868796 13.505405820921997  C 6.441614106648942 13.503763337588662  6.468078570301422 13.49956583865249  6.4950873203014226 13.493725856382987  C 6.507497049024824 13.49062337748228  6.519907244946808 13.487885874113484  6.5321347662234075 13.484053444148948  C 6.559144917819154 13.476023234929091  6.585423436436173 13.464708619680863  6.610974526861703 13.451933541666676  C 6.61991717491135 13.446823323581569  6.629954469237589 13.44372112500001  6.638897117287236 13.438063350177316  C 6.672477015336881 13.41908340780143  6.703865752039011 13.396635917553201  6.733247870833338 13.369259015070934  L 9.739904342464541 10.556957153368806  C 11.528200353102843 11.26667851861703  13.644282888563833 10.943489227836888  15.140252746719867 9.544070628546113  C 17.205223757358162 7.612484812943272  17.31347366870567 4.360969564716321  15.38188318111703 2.296419032801431  C 13.450484244946814 0.22999970656029767  10.199249315868801 0.12137603634753091  8.134231585372348 2.0533309388297987  Z M 8.768780231648932 10.043227602039003  L 6.228714095744678 12.420263297872339  L 4.420328546099292 11.988469024822692  C 4.4102912517730495 11.98609654370567  4.399888608156026 11.98609654370567  4.390216195921987 11.98427152588652  C 4.372148692375887 11.981169046985809  4.354263863475179 11.978066661524817  4.335647401595743 11.976971548049637  C 4.317397223404257 11.975511552482267  4.299330187056739 11.97624155026595  4.281443022163121 11.976971548049637  C 4.2710403785461 11.97733657030141  4.260638202127659 11.975876574734034  4.250600440602838 11.976606572517724  C 4.244760458333332 11.97733657030141  4.239468032801419 11.979344029166661  4.233992932624112 11.980074073670206  C 4.215012990248226 11.98244655478723  4.1973103687943265 11.98700916941489  4.179059723404254 11.991206481471625  C 4.163547328900709 11.995038958156023  4.14803493439716 11.998506459308505  4.133069629432626 12.00325132810283  C 4.117192352836881 12.008726428280138  4.10222704787234 12.015661056826236  4.087079535460994 12.022596152570916  C 4.071567140957448 12.029896130407796  4.055689397163121 12.036831226152476  4.040724559397162 12.045408524911341  C 4.027219717198584 12.05307338484042  4.014809521276597 12.06238091498226  4.0020344432624135 12.070958680939707  C 3.9874344875886543 12.081361324556735  3.9733820886524853 12.09176350097517  3.959877246453903 12.103078583421983  C 3.948379956560288 12.113115877748218  3.938159987588655 12.124795842287224  3.927027579787236 12.135928250088647  C 3.9146178510638308 12.14870332810283  3.9025725372340467 12.161478406117013  3.891440129432624 12.175348130407798  C 3.882132599290781 12.187392977039  3.8744677393617053 12.199803172960987  3.866255322695036 12.212760458421979  C 3.8562180283687972 12.228272852925524  3.8458153847517735 12.244515478812051  3.8376029680851076 12.261489270478716  C 3.831398103723405 12.273534117109921  3.826470560283692 12.286674077216304  3.821360342198581 12.29944915523049  C 3.8136954822695017 12.318793979698576  3.806577711879431 12.337773922074458  3.800920404255322 12.357848977925524  C 3.799825430939716 12.362959196010632  3.7970879275709244 12.36715650806737  3.795992860815602 12.372448933599284  C 3.7939854019503585 12.38175646374113  3.7939854019503585 12.39106399388297  3.7921603841312077 12.40037152402482  C 3.7886928829787223 12.419716348492905  3.7855906376773056 12.437966526684392  3.7844955242021285 12.457678102039004  C 3.783400550886526 12.475927813031909  3.7837655731383 12.493630434485809  3.7844955242021285 12.510966772251766  C 3.7848605464539027 12.52173429796099  3.783400550886526 12.532136474379431  3.7844955242021285 12.542356910549639  L 3.975939486968084 14.52776400274822  L 3.4304384231382983 15.038038293528363  L 1.4234934763297886 15.226375385726946  L 1.856016579166667 13.38514577579787  L 7.210579522429079 8.378645775797871  C 7.400014531294328 8.703675828989361  7.624671641223401 9.014456325443263  7.892782891223405 9.300615456648934  C 8.16105766072695 9.587139002748224  8.456317820301415 9.832053843173757  8.768780231648932 10.043227602039003  Z M 14.432253989361705 8.785411613475173  C 12.784631471631204 10.326232535460992  10.190791666666666 10.239754078014183  8.65020434397163 8.592874406028365  C 7.109009663120567 6.945625647163119  7.195488120567376 4.351598962765955  8.842741551418442 2.810357562056737  C 10.490364069148935 1.2695366400709212  13.084203874113477 1.3556413386524806  14.62525839539007 3.0032591843971623  C 16.16626619680851 4.650507943262408  16.079974618794324 7.24434774822695  14.432538980496453 8.78530882978723  Z M 10.686003989361698 2.7625997340425528  C 9.919506316489361 3.4797839095744685  9.879674202127656 4.686702127659576  10.596430684840424 5.452993683510638  C 11.31361486037234 6.219491356382978  12.520533078457447 6.260147938829785  13.287236868351062 5.542968916223405  C 14.053940658244677 4.826196974734042  14.093566655585107 3.618866522606382  13.37640824468085 2.8521627327127668  C 12.659636303191487 2.0858711768617013  11.452718085106383 2.045420711436172  10.686014295212765 2.7625894281914896  Z M 12.505038231382976 4.707623005319146  C 12.199284242021271 4.9936515957446765  11.717619680851058 4.977548703457444  11.431374667553186 4.6717941988031875  C 11.145346077127659 4.366040209441486  11.161448969414892 3.8843756482712735  11.467606432845741 3.5983367519946796  C 11.773360422207443 3.3123081615691454  12.255024983377652 3.3284110538563816  12.541063879654253 3.6337631150265928  C 12.82729343417553 3.9397180684840407  12.81139150598404 4.421387782579785  12.505033593749992 4.707632795877657  Z " fill-rule="nonzero" fill="#333333" stroke="none" transform="matrix(1 0 0 1 15 70 )" />
  </g>
</svg>