<svg width="28" height="20" viewBox="0 0 28 20" fill="none" xmlns="http://www.w3.org/2000/svg">
<g clip-path="url(#clip0_9045_3822)">
<path d="M5.41171 15.4375L4.90464 12.7952C4.84161 12.4667 4.67195 12.1739 4.44722 11.9604C4.22471 11.749 3.9172 11.5879 3.56956 11.5879H2.87937C2.11902 11.5879 1.53295 11.3156 1.13574 10.9002C0.735285 10.4813 0.5 9.88853 0.5 9.20564V2.80646C0.5 2.05781 0.755128 1.47124 1.15868 1.07245C1.56313 0.672767 2.15139 0.42749 2.87937 0.42749H15.1204C16.4913 0.42749 17.4999 1.40167 17.4999 2.80646V9.20557C17.4999 10.4258 16.5468 11.5879 15.1204 11.5879H10.237C9.9267 11.5879 9.59165 11.6746 9.2995 11.7967C9.00733 11.9189 8.71023 12.0965 8.49214 12.3174L5.41171 15.4375Z" stroke="#333333"/>
<line x1="4.7" y1="4.3" x2="13.3" y2="4.3" stroke="#333333" stroke-width="1.4" stroke-linecap="round"/>
<line x1="4.7" y1="7.3" x2="13.3" y2="7.3" stroke="#333333" stroke-width="1.4" stroke-linecap="round"/>
</g>
<rect x="9" y="2" width="17" height="11" fill="white"/>
<path d="M22.5883 18.4375L23.0954 15.7952C23.1584 15.4667 23.3281 15.1739 23.5528 14.9604C23.7753 14.749 24.0828 14.5879 24.4304 14.5879H25.1206C25.881 14.5879 26.467 14.3156 26.8643 13.9002C27.2647 13.4813 27.5 12.8885 27.5 12.2056V5.80646C27.5 5.05781 27.2449 4.47124 26.8413 4.07245C26.4369 3.67277 25.8486 3.42749 25.1206 3.42749H12.8796C11.5087 3.42749 10.5001 4.40167 10.5001 5.80646V12.2056C10.5001 13.4258 11.4532 14.5879 12.8796 14.5879H17.763C18.0733 14.5879 18.4083 14.6746 18.7005 14.7967C18.9927 14.9189 19.2898 15.0965 19.5079 15.3174L22.5883 18.4375Z" stroke="#333333"/>
<line x1="14.7" y1="7.3" x2="23.3" y2="7.3" stroke="#333333" stroke-width="1.4" stroke-linecap="round"/>
<line x1="14.7" y1="10.3" x2="23.3" y2="10.3" stroke="#333333" stroke-width="1.4" stroke-linecap="round"/>
<defs>
<clipPath id="clip0_9045_3822">
<rect width="18" height="17" fill="white"/>
</clipPath>
</defs>
</svg>
