<?xml version="1.0" encoding="utf-8"?>
<svg version="1.1" xmlns:xlink="http://www.w3.org/1999/xlink" width="18px" height="18px" xmlns="http://www.w3.org/2000/svg">
  <g transform="matrix(1 0 0 1 -14 -24 )">
    <path d="M 3.1802287499999995 15.865425000000002  C 4.80213 17.241862499999996  6.869002500000001 18  9 18  C 11.1309975 18  13.197825000000002 17.241862499999996  14.819849999999999 15.865312500000002  C 15.2006625 15.542212500000005  15.557962500000002 15.184125000000002  15.881625 14.80095  C 17.247712500000002 13.181624999999997  18 11.121569999999998  18 9  C 18 6.59597625  17.0638875 4.335896250000001  15.364012500000001 2.636021249999999  C 13.664137499999999 0.9361406250000002  11.4040125 0  9 0  C 6.59597625 0  4.335896250000001 0.9361406250000002  2.636021249999999 2.636021249999999  C 0.9361417500000009 4.335896250000001  0 6.59597625  0 9  C 0 11.121603749999998  0.7522380000000002 13.181624999999997  2.118195 14.800725  C 2.4420262499999996 15.184125000000002  2.79928125 15.542212500000005  3.1802287499999995 15.865425000000002  Z M 1.125 9  C 1.125 4.657713749999999  4.657713749999999 1.125  9 1.125  C 13.342275 1.125  16.875 4.657713749999999  16.875 9  C 16.875 10.856430000000003  16.216874999999998 12.658837500000004  15.021900000000002 14.0752125  C 14.738624999999999 14.410800000000002  14.425650000000001 14.724450000000004  14.091974999999998 15.0075  C 12.673012499999999 16.2118125  10.864653750000002 16.875  9 16.875  C 7.135346249999998 16.875  5.327010000000001 16.2118125  3.9080700000000004 15.0075  C 3.574338749999999 14.724450000000004  3.261408750000001 14.410687500000002  2.977874999999999 14.074987499999999  C 1.78309125 12.658837500000004  1.125 10.856463750000003  1.125 9  Z M 5.625 5.625  C 5.625 7.485997499999996  7.1390025 9  9 9  C 10.8609975 9  12.375 7.485997499999996  12.375 5.625  C 12.375 3.7640025  10.8609975 2.25  9 2.25  C 7.1390025 2.25  5.625 3.7640025  5.625 5.625  Z M 6.75 5.625  C 6.75 4.384338750000001  7.759338750000001 3.375  9 3.375  C 10.240661250000002 3.375  11.25 4.384338750000001  11.25 5.625  C 11.25 6.865661250000002  10.240661250000002 7.875  9 7.875  C 7.759338750000001 7.875  6.75 6.865661250000002  6.75 5.625  Z M 2.998541249999999 15.573374999999999  C 3.0626324999999994 15.8286375  3.2918512500000006 15.998962499999998  3.543682499999999 15.999074999999998  C 3.5890312499999997 15.999074999999998  3.6350887499999995 15.993562499999996  3.681067500000001 15.981974999999998  C 3.9823649999999997 15.906374999999997  4.165312499999999 15.600825  4.089690000000001 15.299437500000003  C 3.9887212499999993 14.8971375  3.9375 14.481000000000002  3.9375 14.0625  C 3.9375 11.310299999999998  6.175057500000001 9.03987  8.925930000000001 9.00034875  L 9 9  L 9.074069999999999 9.00034875  C 11.824987499999999 9.03987  14.0625 11.310299999999998  14.0625 14.0625  C 14.0625 14.481000000000002  14.011312499999999 14.8971375  13.910287499999999 15.299437500000003  C 13.834687500000001 15.600825  14.017612499999998 15.906374999999997  14.318887500000002 15.981974999999998  C 14.6201625 16.057575  14.925825 15.874650000000003  15.001424999999998 15.573374999999999  C 15.124949999999998 15.081525  15.1875 14.573250000000002  15.1875 14.0625  C 15.1875 12.424949999999995  14.554124999999999 10.881461250000001  13.403925000000001 9.71613  C 12.254962499999998 8.55196875  10.722059999999999 7.898276250000002  9.0876825 7.875416250000001  C 9.085038749999999 7.875382500000001  9.082439999999998 7.875382500000001  9.079807500000001 7.875382500000001  L 9 7.875  L 8.920192499999999 7.875348750000001  C 8.917560000000002 7.875348750000001  8.914961249999998 7.875348750000001  8.9123175 7.875382500000001  C 7.277940000000001 7.898208750000002  5.7450600000000005 8.551935  4.596041249999999 9.71609625  C 3.445908750000001 10.881461250000001  2.8125 12.424949999999995  2.8125 14.0625  C 2.8125 14.573250000000002  2.8750725 15.081525  2.998541249999999 15.573374999999999  Z " fill-rule="nonzero" fill="#333333" stroke="none" transform="matrix(1 0 0 1 14 24 )" />
  </g>
</svg>