<svg width="20" height="20" viewBox="0 0 20 20" fill="none" xmlns="http://www.w3.org/2000/svg"><rect width="20" height="20" rx="3" fill="#009A34"></rect><path d="M4.75 8.2C5.072 8.2 5.33334 7.9312 5.33334 7.6C5.33334 7.2688 5.072 7 4.75 7H3.58333C3.26133 7 3 7.2688 3 7.6V12.4C3 12.7312 3.26133 13 3.58333 13C3.90533 13 4.16667 12.7312 4.16667 12.4V10.6H4.75C5.072 10.6 5.33334 10.3312 5.33334 10C5.33334 9.6688 5.072 9.4 4.75 9.4H4.16667V8.2H4.75Z" fill="white"></path><path d="M12.9167 8.2C13.2387 8.2 13.5 7.9312 13.5 7.6C13.5 7.2688 13.2387 7 12.9167 7H11.75C11.428 7 11.1667 7.2688 11.1667 7.6V12.4C11.1667 12.7312 11.428 13 11.75 13H12.9167C13.2387 13 13.5 12.7312 13.5 12.4C13.5 12.0688 13.2387 11.8 12.9167 11.8H12.3333V10.6H12.9167C13.2387 10.6 13.5 10.3312 13.5 10C13.5 9.6688 13.2387 9.4 12.9167 9.4H12.3333V8.2H12.9167Z" fill="white"></path><path d="M16.4167 10.6C16.7387 10.6 17 10.3312 17 10C17 9.6688 16.7387 9.4 16.4167 9.4H15.8333V8.2H16.4167C16.7387 8.2 17 7.9312 17 7.6C17 7.2688 16.7387 7 16.4167 7H15.25C14.928 7 14.6667 7.2688 14.6667 7.6V12.4C14.6667 12.7312 14.928 13 15.25 13H16.4167C16.7387 13 17 12.7312 17 12.4C17 12.0688 16.7387 11.8 16.4167 11.8H15.8333V10.6H16.4167Z" fill="white"></path><path d="M10 8.8C10 7.8076 9.21485 7 8.25001 7H7.08335C6.76135 7 6.50001 7.2688 6.50001 7.6V12.4C6.50001 12.7312 6.76135 13 7.08335 13C7.40535 13 7.66668 12.7312 7.66668 12.4V10.9996L8.95002 12.76C9.06435 12.9172 9.23935 13 9.41668 13C9.53802 13 9.66052 12.9616 9.76552 12.88C10.0233 12.6808 10.0758 12.3052 9.88218 12.04L8.76801 10.51C9.47852 10.282 10 9.6064 10 8.8ZM8.25001 9.4H7.66668V8.2H8.25001C8.57201 8.2 8.83335 8.4688 8.83335 8.8C8.83335 9.1312 8.57201 9.4 8.25001 9.4Z" fill="white"></path></svg>