<svg width="18" height="18" viewBox="0 0 18 18" fill="none" xmlns="http://www.w3.org/2000/svg">
<path d="M4.5 17C4.22386 17 4 16.7761 4 16.5L4 1.51111C4 1.23067 4.23061 1.00507 4.51099 1.01123L6 1.04396L7.48901 1.01123C7.76939 1.00507 8 1.23067 8 1.51111L8 16.5C8 16.7761 7.77614 17 7.5 17L4.5 17Z" fill="white" stroke="#333333" stroke-linecap="round" stroke-linejoin="round"/>
<path d="M1 5C1 4.44772 1.44772 4 2 4H13.2274C13.4714 4 13.707 4.08918 13.8897 4.25075L16.1524 6.25075C16.6026 6.64877 16.6026 7.35123 16.1524 7.74925L13.8897 9.74925C13.707 9.91082 13.4714 10 13.2275 10H2C1.44772 10 1 9.55228 1 9V5Z" fill="white" stroke="#333333" stroke-width="1.2" stroke-linecap="round" stroke-linejoin="round"/>
<path d="M2.5 17C2.5 16.1716 3.17157 15.5 4 15.5H8C8.82843 15.5 9.5 16.1716 9.5 17V17.5H2.5V17Z" fill="white" stroke="#333333"/>
</svg>
