<svg width="30" height="20" viewBox="0 0 30 20" fill="none" xmlns="http://www.w3.org/2000/svg">
<g clip-path="url(#clip0_9045_178278)">
<path d="M13.9477 17.6979V19.6667C13.9477 19.8508 13.7941 20 13.6046 20C13.4151 20 13.2615 19.8508 13.2615 19.6667V17.6979C13.2615 16.165 11.9846 14.9245 10.4064 14.9245C9.65972 14.9245 8.98224 14.555 8.59407 13.936C8.49552 13.7788 8.54677 13.5737 8.70862 13.4779C8.87043 13.3822 9.08152 13.432 9.18012 13.5892C9.44267 14.0079 9.90108 14.2579 10.4064 14.2579C12.3636 14.2578 13.9477 15.7965 13.9477 17.6979ZM7.96047 14.357C8.00082 14.5368 7.88344 14.7144 7.6983 14.7536C6.79537 14.9447 5.87704 14.7534 5.14587 14.2686C4.42203 15.0221 3.46574 14.9245 3.59376 14.9245C2.01575 14.9245 0.738675 16.1649 0.738675 17.6979V19.6667C0.738675 19.8508 0.585055 20 0.395582 20C0.20611 20 0.0524902 19.8508 0.0524902 19.6667V17.6979C0.0524902 15.7967 1.63625 14.2579 3.59367 14.2579C4.38545 14.2579 5.02733 13.6382 5.02733 12.8688V12.7811C3.52977 12.0855 2.47862 10.6237 2.41455 8.92145C1.79827 8.77751 1.33909 8.24166 1.33909 7.60412V5.87631C1.32034 5.03059 1.4496 2.91241 3.03945 1.42368C5.00258 -0.414658 8.1508 -0.297882 10.4657 0.784684C10.6914 0.890296 10.7256 1.18642 10.5382 1.33978C11.711 1.61766 12.7222 2.31798 13.3719 3.32027C13.4055 3.37189 13.4669 3.45292 13.4508 3.58219C13.4409 3.66264 13.4162 3.73071 13.3524 3.79362C12.9343 4.20557 12.704 4.75146 12.704 5.33075V7.60421C12.704 7.78826 12.5504 7.93749 12.3609 7.93749C12.1715 7.93749 12.0178 7.78826 12.0178 7.60421V5.33075C12.0178 4.66263 12.2528 4.02847 12.6844 3.51903C12.0266 2.60515 11.0003 2.0174 9.83963 1.89666L9.2366 1.83392C8.88398 1.79726 8.81481 1.32536 9.1425 1.19434L9.41676 1.08465C5.84492 -0.124988 2.02523 1.21904 2.02523 5.87268V7.60412C2.02523 7.86859 2.18202 8.09843 2.41121 8.21388V6.0532C2.41121 4.76679 3.4886 3.72017 4.81285 3.72017H9.18728C10.5115 3.72017 11.5889 4.7667 11.5889 6.05308V8.78201C11.5889 11.6805 8.67315 13.8822 5.70618 13.0337C5.68688 13.2715 5.62594 13.5009 5.52666 13.7142C6.10382 14.0993 6.83268 14.2546 7.55219 14.1023C7.73733 14.0631 7.92011 14.1771 7.96047 14.357ZM7.00006 12.5478C9.15202 12.5478 10.9027 10.8472 10.9027 8.75668V6.05308C10.9027 5.13428 10.1332 4.38675 9.18728 4.38675H4.81285C3.86695 4.38675 3.09739 5.13432 3.09739 6.0532V8.75668C3.09739 10.8472 4.8481 12.5478 7.00006 12.5478Z" fill="#0084CC"/>
<path d="M29.9477 17.6979V19.6667C29.9477 19.8508 29.7941 20 29.6046 20C29.4151 20 29.2615 19.8508 29.2615 19.6667V17.6979C29.2615 16.165 27.9846 14.9245 26.4064 14.9245C25.6597 14.9245 24.9822 14.555 24.5941 13.936C24.4955 13.7788 24.5468 13.5737 24.7086 13.4779C24.8704 13.3822 25.0815 13.432 25.1801 13.5892C25.4427 14.0079 25.9011 14.2579 26.4064 14.2579C28.3636 14.2578 29.9477 15.7965 29.9477 17.6979ZM23.9605 14.357C24.0008 14.5368 23.8834 14.7144 23.6983 14.7536C22.7954 14.9447 21.877 14.7534 21.1459 14.2686C20.422 15.0221 19.4657 14.9245 19.5938 14.9245C18.0157 14.9245 16.7387 16.1649 16.7387 17.6979V19.6667C16.7387 19.8508 16.5851 20 16.3956 20C16.2061 20 16.0525 19.8508 16.0525 19.6667V17.6979C16.0525 15.7967 17.6362 14.2579 19.5937 14.2579C20.3854 14.2579 21.0273 13.6382 21.0273 12.8688V12.7811C19.5298 12.0855 18.4786 10.6237 18.4146 8.92145C17.7983 8.77751 17.3391 8.24166 17.3391 7.60412V5.87631C17.3203 5.03059 17.4496 2.91241 19.0395 1.42368C21.0026 -0.414658 24.1508 -0.297882 26.4657 0.784684C26.6914 0.890296 26.7256 1.18642 26.5382 1.33978C27.711 1.61766 28.7222 2.31798 29.3719 3.32027C29.4055 3.37189 29.4669 3.45292 29.4508 3.58219C29.4409 3.66264 29.4162 3.73071 29.3524 3.79362C28.9343 4.20557 28.704 4.75146 28.704 5.33075V7.60421C28.704 7.78826 28.5504 7.93749 28.3609 7.93749C28.1715 7.93749 28.0178 7.78826 28.0178 7.60421V5.33075C28.0178 4.66263 28.2528 4.02847 28.6844 3.51903C28.0266 2.60515 27.0003 2.0174 25.8396 1.89666L25.2366 1.83392C24.884 1.79726 24.8148 1.32536 25.1425 1.19434L25.4168 1.08465C21.8449 -0.124988 18.0252 1.21904 18.0252 5.87268V7.60412C18.0252 7.86859 18.182 8.09843 18.4112 8.21388V6.0532C18.4112 4.76679 19.4886 3.72017 20.8129 3.72017H25.1873C26.5115 3.72017 27.5889 4.7667 27.5889 6.05308V8.78201C27.5889 11.6805 24.6732 13.8822 21.7062 13.0337C21.6869 13.2715 21.6259 13.5009 21.5267 13.7142C22.1038 14.0993 22.8327 14.2546 23.5522 14.1023C23.7373 14.0631 23.9201 14.1771 23.9605 14.357ZM23.0001 12.5478C25.152 12.5478 26.9027 10.8472 26.9027 8.75668V6.05308C26.9027 5.13428 26.1332 4.38675 25.1873 4.38675H20.8129C19.8669 4.38675 19.0974 5.13432 19.0974 6.0532V8.75668C19.0974 10.8472 20.8481 12.5478 23.0001 12.5478Z" fill="#0084CC"/>
<path d="M9 5L10.5 1.5L12.5 0.5H15H17.5L19.5 1.5L21 5L23 12.5L24 16.25L23.5 18L22.5 18.5V20H19.5H15H10.5H8.25H7.5V18.5L6 17L8 8L9 5Z" fill="white"/>
<path d="M23.877 15.3243C23.6508 14.803 23.3944 14.2122 23.4081 13.266C23.4267 11.9877 23.141 11.4059 22.8647 10.8433C22.736 10.5812 22.6144 10.3336 22.5229 10.0113C22.389 9.53965 22.3843 9.13457 22.3793 8.7057C22.3736 8.20734 22.3677 7.69203 22.1691 7.03801C22.0265 6.56824 21.8394 6.25633 21.6584 5.9548C21.403 5.52914 21.1618 5.12703 21.0577 4.25086C20.8697 2.66895 19.8708 1.6443 19.0659 1.06332C18.1711 0.417383 17.0463 0 16.2003 0C15.7983 0 15.4568 0.0910937 15.1853 0.270703C15.071 0.346406 14.929 0.346406 14.8147 0.270703C14.543 0.0910937 14.2016 0 13.7997 0C12.9537 0 11.8288 0.417383 10.934 1.06332C10.1291 1.6443 9.1302 2.66895 8.94223 4.25086C8.83813 5.12703 8.59688 5.52914 8.34145 5.9548C8.16052 6.25637 7.97337 6.56824 7.83075 7.03801C7.6322 7.69207 7.62626 8.20738 7.62052 8.7057C7.61559 9.13457 7.61091 9.53965 7.477 10.0113C7.38548 10.3336 7.26387 10.5812 7.1352 10.8433C6.85891 11.4059 6.57321 11.9877 6.59177 13.266C6.60548 14.2122 6.34911 14.803 6.1229 15.3243C5.86618 15.9159 5.62372 16.4746 5.90274 17.2962C6.21106 18.2041 7.11626 18.7525 7.50501 18.9522V19.707C7.50501 19.8689 7.63618 20 7.79798 20C7.95977 20 8.09095 19.8689 8.09095 19.707V17.2787C8.09095 16.9935 8.16798 16.7211 8.30489 16.4848L9.68895 17.6711C9.90192 17.8537 10.024 18.1192 10.024 18.3997V19.707C10.024 19.8689 10.1552 20 10.317 20C10.4788 20 10.61 19.8689 10.61 19.707V18.3997C10.61 17.948 10.4133 17.5202 10.0703 17.2263L8.68684 16.0405C8.82302 15.9314 8.97837 15.8435 9.14895 15.7833L11.0127 15.1255C12.2736 16.7775 13.5778 17.8836 14.8904 18.413C14.9255 18.4272 14.9627 18.4343 15 18.4343C15.0372 18.4343 15.0744 18.4272 15.1096 18.4131C15.9082 18.0909 16.7165 17.5442 17.5118 16.7881C17.629 16.6766 17.6337 16.4911 17.5222 16.3739C17.4107 16.2566 17.2252 16.252 17.108 16.3634C16.4036 17.0332 15.6949 17.5241 15 17.8239C13.6145 17.2257 12.414 15.9664 11.5946 14.9201L12.3831 14.6418C12.9998 14.4242 13.4142 13.8385 13.4142 13.1845V12.1865C13.9059 12.379 14.4408 12.4848 15 12.4848C15.5592 12.4848 16.094 12.379 16.5858 12.1865V13.1845C16.5858 13.8385 17.0002 14.4241 17.6169 14.6418L18.4051 14.92C18.2415 15.1292 18.0759 15.3309 17.9103 15.5214C17.8041 15.6435 17.817 15.8285 17.9391 15.9347C17.9946 15.9829 18.0631 16.0066 18.1312 16.0066C18.2131 16.0066 18.2945 15.9725 18.3524 15.9059C18.5655 15.6609 18.7782 15.3984 18.9868 15.1254L20.851 15.7833C21.0277 15.8457 21.1881 15.9375 21.3277 16.052L19.9577 17.2263C19.6147 17.5202 19.418 17.948 19.418 18.3997V19.707C19.418 19.8689 19.5491 20 19.711 20C19.8728 20 20.004 19.8689 20.004 19.707V18.3997C20.004 18.1192 20.1261 17.8536 20.339 17.6711L21.7043 16.5009C21.8355 16.7334 21.9091 17 21.9091 17.2788V19.707C21.9091 19.8689 22.0402 20 22.202 20C22.3639 20 22.495 19.8689 22.495 19.707V18.9522C22.8837 18.7525 23.7889 18.2041 24.0973 17.2962C24.3762 16.4746 24.1337 15.9158 23.877 15.3243ZM23.5424 17.1078C23.3567 17.6544 22.8569 18.051 22.4949 18.2774V17.2787C22.4949 16.3597 21.9127 15.5367 21.046 15.2308L17.8119 14.0893C17.429 13.9542 17.1717 13.5905 17.1717 13.1845V11.9051C18.4806 11.1509 19.3636 9.73723 19.3636 8.12121V7.08367C19.3851 7.09891 19.4065 7.11402 19.4276 7.12887C20.0574 7.57293 20.4734 7.86633 20.553 8.87488C20.5652 9.02836 20.6934 9.14477 20.8448 9.14477C20.8525 9.14477 20.8603 9.14445 20.8682 9.14387C21.0295 9.13113 21.1499 8.99004 21.1372 8.82875C21.0359 7.54602 20.4187 7.11082 19.7654 6.65004C19.2999 6.32176 18.8185 5.98223 18.3799 5.27855C17.6697 4.13891 16.8946 3.94359 16.2718 3.78668C15.9706 3.71078 15.7142 3.6459 15.4907 3.48965C15.3661 3.4025 15.2929 3.25898 15.2929 3.10691V2.49715C15.2929 2.33676 15.1693 2.19684 15.009 2.19203C14.8431 2.18707 14.707 2.32004 14.707 2.48488V3.10688C14.707 3.25895 14.6338 3.40246 14.5092 3.48961C14.2857 3.64586 14.0294 3.71074 13.7282 3.78664C13.1054 3.94359 12.3302 4.13891 11.62 5.27852C11.1815 5.98223 10.7001 6.32172 10.2346 6.65C9.58126 7.11078 8.96411 7.54602 8.86286 8.82875C8.85012 8.99004 8.97055 9.13109 9.13184 9.14383C9.29337 9.15684 9.43423 9.03613 9.44696 8.87481C9.52661 7.86629 9.94259 7.57289 10.5723 7.12879C11.0374 6.80082 11.6161 6.3927 12.1174 5.58836C12.7026 4.64926 13.2703 4.50621 13.8714 4.35473C14.2547 4.25813 14.6486 4.15891 15 3.84898C15.3514 4.15895 15.7453 4.25816 16.1286 4.35473C16.7297 4.50621 17.2974 4.64926 17.8827 5.58836C18.1677 6.04574 18.4777 6.37488 18.7777 6.63414V8.07293C18.7777 10.1527 17.117 11.8785 15.0373 11.8986C12.9372 11.919 11.2223 10.2166 11.2223 8.12109V8.01594C11.2223 7.85555 11.0987 7.71562 10.9384 7.71082C10.7725 7.70586 10.6364 7.83883 10.6364 8.00367V8.12109C10.6364 9.73711 11.5194 11.1508 12.8283 11.905V13.1844C12.8283 13.5905 12.571 13.9541 12.1881 14.0892L8.95403 15.2307C8.08735 15.5366 7.50509 16.3595 7.50509 17.2786V18.2785C7.14356 18.053 6.6443 17.6573 6.45762 17.1077C6.25134 16.5002 6.41407 16.1252 6.66048 15.5573C6.89786 15.0104 7.19325 14.3296 7.1777 13.2574C7.16122 12.1196 7.40407 11.625 7.66122 11.1014C7.79571 10.8276 7.93481 10.5443 8.04075 10.1713C8.19602 9.62445 8.20134 9.16078 8.20653 8.71234C8.21204 8.23402 8.21723 7.78219 8.39153 7.20809C8.51313 6.8075 8.67384 6.53969 8.84399 6.25609C9.11993 5.79625 9.40528 5.3207 9.52419 4.31984C9.68704 2.94902 10.5673 2.05059 11.277 1.53828C12.1884 0.88043 13.2007 0.585937 13.7997 0.585937C14.0847 0.585937 14.3174 0.644297 14.4914 0.759375C14.8003 0.963711 15.1996 0.96375 15.5086 0.759414C15.6826 0.644297 15.9153 0.585937 16.2003 0.585937C17.0315 0.585937 18.0663 1.0643 18.723 1.5384C19.4328 2.0507 20.313 2.94914 20.4759 4.31996C20.5948 5.32082 20.8801 5.79637 21.156 6.25621C21.3261 6.5398 21.4869 6.80762 21.6084 7.2082C21.7827 7.7823 21.788 8.23414 21.7934 8.71246C21.7986 9.16086 21.804 9.62457 21.9592 10.1714C22.0652 10.5445 22.2042 10.8277 22.3388 11.1016C22.5959 11.6252 22.8388 12.1197 22.8223 13.2575C22.8068 14.3297 23.1022 15.0105 23.3395 15.5575C23.5859 16.1253 23.7487 16.5004 23.5424 17.1078Z" fill="#0084CC"/>
<circle cx="18" cy="15" r="7" fill="white"/>
<path d="M21.465 17.4455C22.0326 16.6704 22.3721 15.7183 22.3721 14.6861C22.3721 12.1023 20.2699 10 17.6861 10C15.1022 10 13 12.1023 13 14.6861C13 17.2699 15.1023 19.3722 17.6861 19.3722C18.7183 19.3722 19.6705 19.0326 20.4456 18.465L21.9806 20L23 18.9805L21.465 17.4455ZM17.6861 17.9303C15.8971 17.9303 14.4419 16.4751 14.4419 14.6861C14.4419 12.8971 15.8971 11.4419 17.6861 11.4419C19.475 11.4419 20.9303 12.8971 20.9303 14.6861C20.9303 16.4751 19.475 17.9303 17.6861 17.9303Z" fill="#0084CC"/>
</g>
<defs>
<clipPath id="clip0_9045_178278">
<rect width="30" height="20" fill="white"/>
</clipPath>
</defs>
</svg>
