<svg width="20" height="22" viewBox="0 0 20 22" fill="none" xmlns="http://www.w3.org/2000/svg">
<g clip-path="url(#clip0_9045_178324)">
<path d="M13.9477 19.6979V21.6667C13.9477 21.8508 13.7941 22 13.6046 22C13.4151 22 13.2615 21.8508 13.2615 21.6667V19.6979C13.2615 18.165 11.9846 16.9245 10.4064 16.9245C9.58542 16.9245 7.38551 15.4403 8.5 14.7811C8.5 15 9.08152 15.432 9.18012 15.5892C9.44267 16.0079 9.90108 16.2579 10.4064 16.2579C12.3636 16.2578 13.9477 17.7965 13.9477 19.6979ZM5.14587 16.2686C4.42203 17.0221 3.46574 16.9245 3.59376 16.9245C2.01575 16.9245 0.738675 18.1649 0.738675 19.6979V21.6667C0.738675 21.8508 0.585055 22 0.395582 22C0.20611 22 0.0524902 21.8508 0.0524902 21.6667V19.6979C0.0524902 17.7967 1.63625 16.2579 3.59367 16.2579C4.38544 16.2579 5.02733 15.6382 5.02733 14.8688V14.7811C3.52977 14.0855 2.47862 12.6237 2.41455 10.9214C2.41455 10.9214 2.41121 10.2417 2.41121 9.60412L2.5473 7.87631C2.52856 7.03059 1.4496 4.91241 3.03945 3.42368C5.00258 1.58534 8.1508 1.70212 10.4657 2.78468C10.6914 2.8903 10.7256 3.18642 10.5382 3.33978C11 3.5 11.7373 4.09406 9.83963 3.89666L9.2366 3.83392C8.88398 3.79726 8.81481 3.32536 9.1425 3.19434L9.41676 3.08465C5.84492 1.87501 3.10699 3.22267 3.10699 7.87631L3.09739 9.60412C3.09739 9.86859 2.18202 10.0984 2.41121 10.2139V8.0532C2.41121 6.76679 3.4886 5.72017 4.81285 5.72017H9.18728C10.5115 5.72017 11.5889 6.7667 11.5889 8.05308V10.782C11.5889 13.6805 8.67315 15.8822 5.70618 15.0337C5.68688 15.2715 5.62594 15.5009 5.52666 15.7142L5.14587 16.2686ZM7.00006 14.5478C9.15203 14.5478 10.9027 12.8472 10.9027 10.7567V8.05308C10.9027 7.13428 10.1332 6.38675 9.18728 6.38675H4.81285C3.86695 6.38675 3.09739 7.13432 3.09739 8.0532V10.7567C3.09739 12.8472 4.8481 14.5478 7.00006 14.5478Z" fill="#0084CC"/>
<path d="M3.71051 17.299C3.71051 16.7077 3.92468 15.8418 4.05392 15.3758L7.38501 17.299L5.76898 18.2321L4.05392 19.2222C3.92468 18.7563 3.71051 17.8904 3.71051 17.299Z" fill="#0084CC" stroke="#0084CC" stroke-width="0.5"/>
<path d="M10.2896 17.299C10.2896 16.7077 10.0754 15.8418 9.9462 15.3758L6.61511 17.299L8.23114 18.2321L9.9462 19.2222C10.0754 18.7563 10.2896 17.8904 10.2896 17.299Z" fill="#0084CC" stroke="#0084CC" stroke-width="0.5"/>
<mask id="path-4-inside-1_9045_178324" fill="white">
<rect width="1.7698" height="1.7698" rx="0.2" transform="matrix(-1 0 0 1 7.88501 16.4141)"/>
</mask>
<rect width="1.7698" height="1.7698" rx="0.2" transform="matrix(-1 0 0 1 7.88501 16.4141)" fill="#0084CC" stroke="#0084CC" mask="url(#path-4-inside-1_9045_178324)"/>
<path d="M2 5C2 3.34315 3.34315 2 5 2H9C10.6569 2 12 3.34315 12 5V7C12 8.10457 11.1046 9 10 9H4C2.89543 9 2 8.10457 2 7V5Z" fill="white"/>
<path fill-rule="evenodd" clip-rule="evenodd" d="M9 3H5C3.89543 3 3 3.89543 3 5V7C3 7.55228 3.44772 8 4 8H10C10.5523 8 11 7.55228 11 7V5C11 3.89543 10.1046 3 9 3ZM5 2C3.34315 2 2 3.34315 2 5V7C2 8.10457 2.89543 9 4 9H10C11.1046 9 12 8.10457 12 7V5C12 3.34315 10.6569 2 9 2H5Z" fill="#0084CC"/>
<path fill-rule="evenodd" clip-rule="evenodd" d="M6 4.5C6 4.22386 6.22386 4 6.5 4H7.5C7.77614 4 8 4.22386 8 4.5C8 4.77614 7.77614 5 7.5 5H6.5C6.22386 5 6 4.77614 6 4.5Z" fill="#0084CC"/>
<path fill-rule="evenodd" clip-rule="evenodd" d="M8.27 6.64407C7.42596 6.55028 6.57412 6.55028 5.73008 6.64407L2.55526 6.99683L2.44482 6.00294L5.61965 5.65018C6.53709 5.54825 7.46299 5.54825 8.38043 5.65018L11.5553 6.00294L11.4448 6.99683L8.27 6.64407Z" fill="#0084CC"/>
<circle cx="14.5" cy="17.5" r="7.5" fill="white"/>
<path d="M18.7773 16.1523L17.6074 15.8652C17.543 15.6602 17.4609 15.4609 17.3613 15.2676L17.959 14.2715C18.0293 14.1543 18.0117 14.0078 17.918 13.9141L17.0859 13.082C16.9922 12.9883 16.8457 12.9707 16.7285 13.041L15.7324 13.6387C15.5391 13.5391 15.3398 13.457 15.1348 13.3926L14.8535 12.2227C14.8184 12.0937 14.7012 12 14.5664 12H13.3945C13.2598 12 13.1426 12.0937 13.1074 12.2227L12.8262 13.3926C12.6211 13.457 12.4219 13.5391 12.2285 13.6387L11.2324 13.041C11.1152 12.9707 10.9688 12.9883 10.875 13.082L10.043 13.9141C9.94922 14.0078 9.93164 14.1543 10.002 14.2715L10.5996 15.2676C10.5 15.4609 10.418 15.6602 10.3535 15.8652L9.22266 16.1523C9.09375 16.1816 9 16.2988 9 16.4336V17.6055C9 17.7402 9.09375 17.8574 9.22266 17.8867L10.3535 18.1738C10.418 18.3789 10.5 18.5781 10.5996 18.7715L10.002 19.7676C9.93164 19.8848 9.94922 20.0312 10.043 20.125L10.875 20.957C10.9688 21.0508 11.1152 21.0684 11.2324 20.998L12.2285 20.4004C12.4219 20.5 12.6211 20.582 12.8262 20.6465L13.1074 21.7773C13.1426 21.9063 13.2598 22 13.3945 22H14.5664C14.7012 22 14.8184 21.9063 14.8535 21.7773L15.1348 20.6465C15.3398 20.582 15.5391 20.5 15.7324 20.4004L16.7285 20.998C16.8457 21.0684 16.9922 21.0508 17.0859 20.957L17.918 20.125C18.0117 20.0312 18.0293 19.8848 17.959 19.7676L17.3613 18.7715C17.4609 18.5781 17.543 18.3789 17.6074 18.1738L18.7773 17.8867C18.9063 17.8574 19 17.7402 19 17.6055V16.4336C19 16.2988 18.9063 16.1816 18.7773 16.1523ZM13.9805 18.4844C13.1719 18.4844 12.5156 17.8281 12.5156 17.0195C12.5156 16.2109 13.1719 15.5547 13.9805 15.5547C14.7891 15.5547 15.4453 16.2109 15.4453 17.0195C15.4453 17.8281 14.7891 18.4844 13.9805 18.4844Z" fill="#0084CC"/>
</g>
<defs>
<clipPath id="clip0_9045_178324">
<rect width="20" height="22" fill="white"/>
</clipPath>
</defs>
</svg>
