<?xml version="1.0" encoding="utf-8"?>
<svg version="1.1" xmlns:xlink="http://www.w3.org/1999/xlink" width="9px" height="14px" xmlns="http://www.w3.org/2000/svg">
  <g transform="matrix(1 0 0 1 -850 -154 )">
    <path d="M 6.0908203125 6.31640625  C 6.5302734375 5.860677083333333  6.75 5.310763888888889  6.75 4.666666666666667  C 6.75 4.022569444444444  6.5302734375 3.47265625  6.0908203125 3.016927083333333  C 5.6513671875 2.561197916666667  5.121093750000001 2.333333333333333  4.5 2.333333333333333  C 3.8789062500000004 2.333333333333333  3.3486328125 2.561197916666667  2.9091796875 3.016927083333333  C 2.4697265625 3.47265625  2.25 4.022569444444444  2.25 4.666666666666667  C 2.25 5.310763888888889  2.4697265625 5.860677083333333  2.9091796875 6.31640625  C 3.3486328125 6.772135416666667  3.8789062500000004 7  4.5 7  C 5.121093750000001 7  5.6513671875 6.772135416666667  6.0908203125 6.31640625  Z M 7.681640625 1.3671875  C 8.560546875 2.278645833333333  9 3.3784722222222205  9 4.666666666666667  C 9 5.3289930555555545  8.9033203125 5.872829861111111  8.7099609375 6.298177083333333  L 5.5107421875 13.352864583333332  C 5.4169921875 13.553385416666668  5.27783203125 13.711371527777777  5.09326171875 13.826822916666668  C 4.90869140625 13.942274305555557  4.7109375 14  4.5 14  C 4.2890625 14  4.09130859375 13.942274305555557  3.90673828125 13.826822916666668  C 3.72216796875 13.711371527777777  3.5859375 13.553385416666668  3.498046875 13.352864583333332  L 0.2900390625 6.298177083333333  C 0.0966796875 5.872829861111111  0 5.3289930555555545  0 4.666666666666667  C 0 3.3784722222222205  0.439453125 2.278645833333333  1.318359375 1.3671875  C 2.1972656250000004 0.4557291666666672  3.2578125 0  4.5 0  C 5.7421875 0  6.802734375 0.4557291666666672  7.681640625 1.3671875  Z " fill-rule="nonzero" fill="#0085cc" stroke="none" transform="matrix(1 0 0 1 850 154 )" />
  </g>
</svg>