<?xml version="1.0" encoding="utf-8"?>
<svg version="1.1" xmlns:xlink="http://www.w3.org/1999/xlink" width="18px" height="18px" xmlns="http://www.w3.org/2000/svg">
  <g transform="matrix(1 0 0 1 -14 -384 )">
    <path d="M 9 13  C 6.79436260308929 13  5 11.205601509990117  5 9  C 5 6.794398490009883  6.79436260308929 5  9 5  C 11.20563739691071 5  13 6.794398490009883  13 9  C 13 11.205601509990117  11.20563739691071 13  9 13  Z M 9 6.077199340886011  C 7.388330313079138 6.077199340886011  6.077199340886022 7.388366199999723  6.077199340886022 9  C 6.077199340886022 10.611633800000277  7.3883661999997265 11.922800659113989  9 11.922800659113989  C 10.611633800000273 11.922800659113989  11.922800659113975 10.611633800000277  11.922800659113975 9  C 11.922800659113975 7.388366199999723  10.611669686920862 6.077199340886011  9 6.077199340886011  Z M 9.564820647239685 18  C 9.564820647239685 18  8.435144484043121 18  8.435144484043121 18  C 7.5214686915278435 18  6.778089702129364 17.256656415760517  6.778089702129364 16.34298062324524  C 6.778089702129364 16.34298062324524  6.778089702129364 15.96079695224762  6.778089702129364 15.96079695224762  C 6.389648303389549 15.836695390753448  6.012245938181877 15.680039204657078  5.64967954158783 15.49241030216217  C 5.64967954158783 15.49241030216217  5.37883597612381 15.763254404067993  5.37883597612381 15.763254404067993  C 4.722855493426323 16.42004343867302  3.67207033932209 16.40077719837427  3.0351445376873016 15.763007640838623  C 3.0351445376873016 15.763007640838623  2.2367109954357147 14.964609503746033  2.2367109954357147 14.964609503746033  C 1.5986602082848549 14.327261857688427  1.5803085342049599 13.276827938854694  2.2369218170642853 12.620917797088623  C 2.2369218170642853 12.620917797088623  2.5075545608997345 12.350285053253174  2.5075545608997345 12.350285053253174  C 2.319925658404827 11.987718656659126  2.1633046260103583 11.61038713529706  2.0391679108142853 11.221875429153442  C 2.0391679108142853 11.221875429153442  1.6570195108652115 11.221875429153442  1.6570195108652115 11.221875429153442  C 0.7433788552880287 11.221875429153442  0 10.478530772030354  0 9.564854979515076  C 0 9.564854979515076  0 8.435144484043121  0 8.435144484043121  C 0 7.5214686915278435  0.7433788552880287 6.778125107288361  1.6570546478033066 6.778125107288361  C 1.6570546478033066 6.778125107288361  2.039203181862831 6.778125107288361  2.039203181862831 6.778125107288361  C 2.163339897058904 6.389648538082838  2.3199610635638237 6.012281343340874  2.507589966058731 5.649714946746826  C 2.507589966058731 5.649714946746826  2.23674613237381 5.37890625  2.23674613237381 5.37890625  C 1.5805195569992065 4.723382815718651  1.5986250713467598 3.672843687236309  2.236957088112831 3.035214811563492  C 2.236957088112831 3.035214811563492  3.035461038351059 2.23674613237381  3.035461038351059 2.23674613237381  C 3.673863396048546 1.597464881837368  4.724402256309986 1.5815039947628975  5.379117071628571 2.236957088112831  C 5.379117071628571 2.236957088112831  5.649714946746826 2.5075545608997345  5.649714946746826 2.5075545608997345  C 6.012281343340874 2.3199608121067286  6.389683708548546 2.1633046260103583  6.778125107288361 2.0391679108142853  C 6.778125107288361 2.0391679108142853  6.778125107288361 1.6570195108652115  6.778125107288361 1.6570195108652115  C 6.778125107288361 0.7433437183499336  7.521468959748745 0  8.435179889202118 0  C 8.435179889202118 0  9.564854979515076 0  9.564854979515076 0  C 10.478530772030354 0  11.221875429153442 0.7433437183499336  11.221875429153442 1.6570195108652115  C 11.221875429153442 1.6570195108652115  11.221875429153442 2.039203181862831  11.221875429153442 2.039203181862831  C 11.610316827893257 2.1633047433570027  11.987718656659126 2.3199610635638237  12.350285053253174 2.507589966058731  C 12.350285053253174 2.507589966058731  12.621129155158997 2.23674613237381  12.621129155158997 2.23674613237381  C 13.277109637856483 1.5799570977687836  14.327893987298012 1.5992226675152779  14.9648197889328 2.236992225050926  C 14.9648197889328 2.236992225050926  15.763254404067993 3.0353904962539673  15.763254404067993 3.0353904962539673  C 16.401305191218853 3.672738142311573  16.419656328856945 4.723172061145306  15.76304304599762 5.379082202911377  C 15.76304304599762 5.379082202911377  15.49241030216217 5.649714946746826  15.49241030216217 5.649714946746826  C 15.680039204657078 6.012281343340874  15.836660237051547 6.389613401144743  15.96079695224762 6.778125107288361  C 15.96079695224762 6.778125107288361  16.342945218086243 6.778125107288361  16.342945218086243 6.778125107288361  C 17.25662101060152 6.778125107288361  18 7.5214686915278435  18 8.435144484043121  C 18 8.435144484043121  18 9.564854979515076  18 9.564854979515076  C 18 10.478530772030354  17.25662101060152 11.221875429153442  16.342945218086243 11.221875429153442  C 16.342945218086243 11.221875429153442  15.96079695224762 11.221875429153442  15.96079695224762 11.221875429153442  C 15.836660237051547 11.610351998358965  15.680039204657078 11.987718656659126  15.49241030216217 12.350285053253174  C 15.49241030216217 12.350285053253174  15.763254404067993 12.621129155158997  15.763254404067993 12.621129155158997  C 16.419480979442596 13.276652589440346  16.40137506276369 14.327190913259983  15.76304304599762 14.9648197889328  C 15.76304304599762 14.9648197889328  14.96453869342804 15.763288736343384  14.96453869342804 15.763288736343384  C 14.326136335730553 16.402569986879826  13.275597207248211 16.41853154450655  12.620882391929626 15.763078451156616  C 12.620882391929626 15.763078451156616  12.350285053253174 15.492480039596558  12.350285053253174 15.492480039596558  C 11.987718656659126 15.680073788389564  11.610316827893257 15.836729974485934  11.221875429153442 15.960866689682007  C 11.221875429153442 15.960866689682007  11.221875429153442 16.343050360679626  11.221875429153442 16.343050360679626  C 11.221875429153442 17.25665581226349  10.478531576693058 18  9.564820647239685 18  Z M 5.8259881138801575 14.384883284568787  C 6.329671695828438 14.682762175798416  6.871781408786774 14.907797131687403  7.43723452091217 15.053730726242065  C 7.670109523460269 15.113812757190317  7.832812607288361 15.323835728690028  7.832812607288361 15.564339637756348  C 7.832812607288361 15.564339637756348  7.832812607288361 16.34298062324524  7.832812607288361 16.34298062324524  C 7.832812607288361 16.675101701170206  8.103058811277151 16.9453125  8.435179889202118 16.9453125  C 8.435179889202118 16.9453125  9.564854979515076 16.9453125  9.564854979515076 16.9453125  C 9.896976057440042 16.9453125  10.167222261428833 16.675101701170206  10.167222261428833 16.34298062324524  C 10.167222261428833 16.34298062324524  10.167222261428833 15.564339637756348  10.167222261428833 15.564339637756348  C 10.167222261428833 15.323835728690028  10.329925881698728 15.113812757190317  10.562800884246826 15.053730726242065  C 11.128253996372223 14.907797131687403  11.670363172888756 14.682762175798416  12.174046754837036 14.384883284568787  C 12.381292847916484 14.26232859492302  12.64514091052115 14.295656466856599  12.815402626991272 14.465918183326721  C 12.815402626991272 14.465918183326721  13.366933465003967 15.017484426498413  13.366933465003967 15.017484426498413  C 13.6047303378582 15.255562545731664  13.986597491428256 15.250042609870434  14.218558430671692 15.017730116844177  C 14.218558430671692 15.017730116844177  15.0175541639328 14.218769788742065  15.0175541639328 14.218769788742065  C 15.248952593654394 13.98765260539949  15.256687397137284 13.605714892968535  15.017765522003174 13.367109417915344  C 15.017765522003174 13.367109417915344  14.465987920761108 12.815331816673279  14.465987920761108 12.815331816673279  C 14.295761357992887 12.645105253905058  14.262433494441211 12.381222289055586  14.384953022003174 12.17401134967804  C 14.682831913232803 11.670362904667854  14.9078325368464 11.128253728151321  15.053766131401062 10.56276547908783  C 15.113883320242167 10.329890476539731  15.323906287550926 10.167222261428833  15.564375042915344 10.167222261428833  C 15.564375042915344 10.167222261428833  16.34298062324524 10.167222261428833  16.34298062324524 10.167222261428833  C 16.675101701170206 10.167222261428833  16.945347905158997 9.897011462599039  16.945347905158997 9.564890384674072  C 16.945347905158997 9.564890384674072  16.945347905158997 8.435179889202118  16.945347905158997 8.435179889202118  C 16.945347905158997 8.103058811277151  16.675101701170206 7.832847476005554  16.34298062324524 7.832847476005554  C 16.34298062324524 7.832847476005554  15.564375042915344 7.832847476005554  15.564375042915344 7.832847476005554  C 15.323871133849025 7.832847476005554  15.113883320242167 7.670144643634558  15.053766131401062 7.437304794788361  C 14.9078325368464 6.871816545724869  14.682796776294708 6.329706832766533  14.384953022003174 5.826058387756348  C 14.262433494441211 5.618847448378801  14.295761357992887 5.354965019971132  14.465987920761108 5.184738457202911  C 14.465987920761108 5.184738457202911  15.0175541639328 4.6331716775894165  15.0175541639328 4.6331716775894165  C 15.255983853712678 4.395023234188557  15.249761614948511 4.013226689770818  15.017765522003174 3.7815118432044983  C 15.017765522003174 3.7815118432044983  14.218839526176453 2.982585847377777  14.218839526176453 2.982585847377777  C 13.987265311181545 2.750695215538144  13.605327598750591 2.7439101822674274  13.367179155349731 2.9823750257492065  C 13.367179155349731 2.9823750257492065  12.815438032150269 3.5341523587703705  12.815438032150269 3.5341523587703705  C 12.645211469382048 3.704414075240493  12.381257945671678 3.7377422153949738  12.174082159996033 3.6151875257492065  C 11.670398578047752 3.317308634519577  11.12828940153122 3.092273410409689  10.562836289405823 2.9463398158550262  C 10.329961286857724 2.8862577849067748  10.16725766658783 2.6762342769652605  10.16725766658783 2.435730367898941  C 10.16725766658783 2.435730367898941  10.16725766658783 1.6570195108652115  10.16725766658783 1.6570195108652115  C 10.16725766658783 1.3248984329402447  9.897011462599039 1.0546875  9.564890384674072 1.0546875  C 9.564890384674072 1.0546875  8.435214757919312 1.0546875  8.435214757919312 1.0546875  C 8.103093679994345 1.0546875  7.832847476005554 1.3248984329402447  7.832847476005554 1.6570195108652115  C 7.832847476005554 1.6570195108652115  7.832847476005554 2.435660094022751  7.832847476005554 2.435660094022751  C 7.832847476005554 2.6761640030890703  7.670144392177463 2.8861875110305846  7.437269389629364 2.946269541978836  C 6.871816277503967 3.0922031365334988  6.329707100987434 3.317238360643387  5.826023519039154 3.6151172518730164  C 5.618742272257805 3.737636779434979  5.354894746094942 3.704308647662401  5.184668183326721 3.5340820848941803  C 5.184668183326721 3.5340820848941803  4.633136808872223 2.982515573501587  4.633136808872223 2.982515573501587  C 4.39533993601799 2.7444374542683363  4.013437628746033 2.7499571219086647  3.7815118432044983 2.9822696149349213  C 3.7815118432044983 2.9822696149349213  2.982515573501587 3.781230479478836  2.982515573501587 3.781230479478836  C 2.751117143779993 4.012347662821412  2.743382876738906 4.394249953329563  2.9823047518730164 4.632890582084656  C 2.9823047518730164 4.632890582084656  3.5340820848941803 5.184668183326721  3.5340820848941803 5.184668183326721  C 3.704308647662401 5.354894746094942  3.737636779434979 5.618777174502611  3.6151172518730164 5.8259881138801575  C 3.317238360643387 6.329636558890343  3.092238273471594 6.871746271848679  2.946304678916931 7.43723452091217  C 2.8861874900758266 7.670109523460269  2.676163986325264 7.832777202129364  2.435695230960846 7.832777202129364  C 2.435695230960846 7.832777202129364  1.6570546478033066 7.832777202129364  1.6570546478033066 7.832777202129364  C 1.3249335698783398 7.832812358381034  1.0546875 8.103023406118155  1.0546875 8.435144484043121  C 1.0546875 8.435144484043121  1.0546875 9.564854979515076  1.0546875 9.564854979515076  C 1.0546875 9.896976057440042  1.3249335698783398 10.167187929153442  1.6570546478033066 10.167187929153442  C 1.6570546478033066 10.167187929153442  2.435660094022751 10.167187929153442  2.435660094022751 10.167187929153442  C 2.6761640030890703 10.167187929153442  2.8861523531377316 10.329890225082636  2.946269541978836 10.562730073928833  C 3.0922031365334988 11.128218322992325  3.317238360643387 11.670328572392464  3.6150821149349213 12.173977017402649  C 3.737601642496884 12.381187956780195  3.704273510724306 12.645069848746061  3.534046947956085 12.815296411514282  C 3.534046947956085 12.815296411514282  2.982480436563492 13.36686372756958  2.982480436563492 13.36686372756958  C 2.744050746783614 13.60501217097044  2.750273521989584 13.986808178946376  2.9822696149349213 14.218523025512695  C 2.9822696149349213 14.218523025512695  3.781195342540741 15.017449021339417  3.781195342540741 15.017449021339417  C 4.012769557535648 15.24933965317905  4.394707269966602 15.25612522289157  4.632855713367462 15.01766037940979  C 4.632855713367462 15.01766037940979  5.184597909450531 14.465882778167725  5.184597909450531 14.465882778167725  C 5.310035412199795 14.340480437502265  5.570999840274453 14.234062973409891  5.8259881138801575 14.384883284568787  Z " fill-rule="nonzero" fill="#333333" stroke="none" transform="matrix(1 0 0 1 14 384 )" />
  </g>
</svg>