<?xml version="1.0" encoding="utf-8"?>
<svg version="1.1" xmlns:xlink="http://www.w3.org/1999/xlink" width="12px" height="12px" xmlns="http://www.w3.org/2000/svg">
  <g transform="matrix(1 0 0 1 -230 -30 )">
    <path d="M 11.987224982256919 0.4559659090909087  C 12.00709723207949 0.5724431818181808  11.988644428672817 0.6846590909090904  11.931866572036906 0.7926136363636362  L 6.481192334989354 11.701704545454545  C 6.384669978708304 11.900568181818182  6.222853087295954 12  5.995741660752307 12  C 5.967352732434351 12  5.924769339957417 11.994318181818182  5.8679914833215046 11.982954545454545  C 5.743080198722499 11.954545454545455  5.642299503193755 11.890625  5.565649396735274 11.791193181818182  C 5.488999290276793 11.691761363636363  5.450674237047551 11.579545454545455  5.450674237047551 11.454545454545455  L 5.450674237047551 6.545454545454545  L 0.5450674237047551 6.545454545454545  C 0.4201561391057488 6.545454545454545  0.30801987224982263 6.5071022727272725  0.20865862313697658 6.4303977272727275  C 0.10929737402413058 6.3536931818181825  0.045422285308729604 6.252840909090908  0.017033356990773598 6.12784090909091  C -0.011355571327182401 6.002840909090909  0 5.883522727272727  0.05110007097232079 5.769886363636363  C 0.10220014194464161 5.65625  0.18452803406671398 5.571022727272727  0.298083747338538 5.514204545454545  L 11.199432221433641 0.05965909090909127  C 11.273243435060326 0.01988636363636287  11.3555713271824 0  11.446415897799858 0  C 11.59971611071682 0  11.727466288147623 0.0539772727272716  11.829666430092264 0.1619318181818188  C 11.914833215046132 0.2414772727272716  11.967352732434351 0.33948863636363535  11.987224982256919 0.4559659090909087  Z " fill-rule="nonzero" stroke="none" transform="matrix(1 0 0 1 230 30 )" />
  </g>
</svg>
