<?xml version="1.0" encoding="utf-8"?>
<svg version="1.1" xmlns:xlink="http://www.w3.org/1999/xlink" width="12px" height="12px" xmlns="http://www.w3.org/2000/svg">
  <defs>
    <mask fill="white" id="clip11">
      <path d="M 0.8145156579304 6.471369905249478  C 0.69387236634077 6.350726613659901  0.6193509302590599 6.184162825243536  0.6194506027739806 5.999976350598981  C 0.6193478628517255 5.631704152167  0.917730276846271 5.333321738172405  1.2860024752782806 5.333424478094692  C 1.2860024752782806 5.333424478094692  10.714053049505225 5.333476930199275  10.714053049505225 5.333476930199275  C 11.082425938450513 5.33347897960844  11.38071098087704 5.631764022035032  11.38061233865264 6.000036219346644  C 11.380614386941375 6.368207726145137  11.082332652287477 6.666690844066046  10.714060453855495 6.666588104143763  C 10.714060453855495 6.666588104143763  1.2860099042143247 6.666535652039318  1.2860099042143247 6.666535652039318  C 1.1018234541556922 6.666635349140222  0.9351589741058035 6.592013221424978  0.8145156579304 6.471369905249478  Z M 5.528633245502704 11.185487492821999  C 5.407990734711348 11.0648449820306  5.333369719606452 10.898181000138408  5.333470646290721 10.713994549412853  C 5.333470646290721 10.713994549412853  5.333481121231301 1.2859439877587704  5.333481121231301 1.2859439877587704  C 5.333481530988422 0.9175710988246166  5.63176524572728 0.61928738408578  6.000037443476231 0.6193876655137949  C 6.368208950263721 0.6193872559805058  6.666693395854651 0.9176703192008908  6.666592295136127 1.2859425171737477  C 6.666592295136127 1.2859425171737477  6.6665818079026735 10.713993066534954  6.6665818079026735 10.713993066534954  C 6.6665813981453255 11.082365955469115  6.368297683406581 11.380649670207937  6.000025485657744 11.380549388779926  C 5.815839010346394 11.38065029087835  5.6492757317083715 11.306129979027645  5.528633245502704 11.185487492821999  Z " fill-rule="evenodd" />
    </mask>
  </defs>
  <g transform="matrix(1 0 0 1 -856 -30 )">
    <path d="M 0.8145156579304 6.471369905249478  C 0.69387236634077 6.350726613659901  0.6193509302590599 6.184162825243536  0.6194506027739806 5.999976350598981  C 0.6193478628517255 5.631704152167  0.917730276846271 5.333321738172405  1.2860024752782806 5.333424478094692  C 1.2860024752782806 5.333424478094692  10.714053049505225 5.333476930199275  10.714053049505225 5.333476930199275  C 11.082425938450513 5.33347897960844  11.38071098087704 5.631764022035032  11.38061233865264 6.000036219346644  C 11.380614386941375 6.368207726145137  11.082332652287477 6.666690844066046  10.714060453855495 6.666588104143763  C 10.714060453855495 6.666588104143763  1.2860099042143247 6.666535652039318  1.2860099042143247 6.666535652039318  C 1.1018234541556922 6.666635349140222  0.9351589741058035 6.592013221424978  0.8145156579304 6.471369905249478  Z M 5.528633245502704 11.185487492821999  C 5.407990734711348 11.0648449820306  5.333369719606452 10.898181000138408  5.333470646290721 10.713994549412853  C 5.333470646290721 10.713994549412853  5.333481121231301 1.2859439877587704  5.333481121231301 1.2859439877587704  C 5.333481530988422 0.9175710988246166  5.63176524572728 0.61928738408578  6.000037443476231 0.6193876655137949  C 6.368208950263721 0.6193872559805058  6.666693395854651 0.9176703192008908  6.666592295136127 1.2859425171737477  C 6.666592295136127 1.2859425171737477  6.6665818079026735 10.713993066534954  6.6665818079026735 10.713993066534954  C 6.6665813981453255 11.082365955469115  6.368297683406581 11.380649670207937  6.000025485657744 11.380549388779926  C 5.815839010346394 11.38065029087835  5.6492757317083715 11.306129979027645  5.528633245502704 11.185487492821999  Z " fill-rule="nonzero" fill="#ffffff" stroke="none" transform="matrix(1 0 0 1 856 30 )" />
    <path d="M 0.8145156579304 6.471369905249478  C 0.69387236634077 6.350726613659901  0.6193509302590599 6.184162825243536  0.6194506027739806 5.999976350598981  C 0.6193478628517255 5.631704152167  0.917730276846271 5.333321738172405  1.2860024752782806 5.333424478094692  C 1.2860024752782806 5.333424478094692  10.714053049505225 5.333476930199275  10.714053049505225 5.333476930199275  C 11.082425938450513 5.33347897960844  11.38071098087704 5.631764022035032  11.38061233865264 6.000036219346644  C 11.380614386941375 6.368207726145137  11.082332652287477 6.666690844066046  10.714060453855495 6.666588104143763  C 10.714060453855495 6.666588104143763  1.2860099042143247 6.666535652039318  1.2860099042143247 6.666535652039318  C 1.1018234541556922 6.666635349140222  0.9351589741058035 6.592013221424978  0.8145156579304 6.471369905249478  Z " stroke-width="2" stroke="#ffffff" fill="none" transform="matrix(1 0 0 1 856 30 )" mask="url(#clip11)" />
    <path d="M 5.528633245502704 11.185487492821999  C 5.407990734711348 11.0648449820306  5.333369719606452 10.898181000138408  5.333470646290721 10.713994549412853  C 5.333470646290721 10.713994549412853  5.333481121231301 1.2859439877587704  5.333481121231301 1.2859439877587704  C 5.333481530988422 0.9175710988246166  5.63176524572728 0.61928738408578  6.000037443476231 0.6193876655137949  C 6.368208950263721 0.6193872559805058  6.666693395854651 0.9176703192008908  6.666592295136127 1.2859425171737477  C 6.666592295136127 1.2859425171737477  6.6665818079026735 10.713993066534954  6.6665818079026735 10.713993066534954  C 6.6665813981453255 11.082365955469115  6.368297683406581 11.380649670207937  6.000025485657744 11.380549388779926  C 5.815839010346394 11.38065029087835  5.6492757317083715 11.306129979027645  5.528633245502704 11.185487492821999  Z " stroke-width="2" stroke="#ffffff" fill="none" transform="matrix(1 0 0 1 856 30 )" mask="url(#clip11)" />
  </g>
</svg>